<svg id="svg" version="1.1" xmlns="http://www.w3.org/2000/svg" xmlns:xlink="http://www.w3.org/1999/xlink" width="400" height="400" viewBox="0, 0, 400,400"><g id="svgg"><path id="path0" d="M190.400 0.262 C 174.932 1.062,152.401 4.781,144.700 7.805 C 143.875 8.128,143.200 8.303,143.200 8.191 C 143.200 8.080,142.567 8.254,141.793 8.577 C 141.019 8.901,140.299 9.173,140.193 9.183 C 140.087 9.192,139.910 9.223,139.800 9.250 C 139.690 9.278,139.420 9.345,139.200 9.400 C 138.980 9.455,138.710 9.545,138.600 9.600 C 138.490 9.655,138.220 9.745,138.000 9.800 C 137.780 9.855,137.510 9.945,137.400 10.000 C 137.290 10.055,137.065 10.133,136.900 10.174 C 136.735 10.215,135.880 10.569,135.000 10.961 C 134.120 11.353,132.995 11.680,132.500 11.687 C 132.005 11.694,131.600 11.818,131.600 11.962 C 131.600 12.349,129.140 13.210,128.741 12.964 C 128.554 12.848,128.400 12.924,128.400 13.133 C 128.400 13.477,126.795 14.122,125.800 14.178 C 125.580 14.190,125.310 14.309,125.200 14.443 C 124.784 14.949,121.098 16.384,120.757 16.173 C 120.560 16.052,120.400 16.154,120.400 16.400 C 120.400 16.646,120.220 16.736,120.000 16.600 C 119.780 16.464,119.600 16.531,119.600 16.749 C 119.600 16.968,119.202 17.273,118.715 17.427 C 117.241 17.895,107.638 22.624,103.800 24.772 C 101.820 25.880,99.930 26.916,99.600 27.074 C 99.270 27.233,98.254 27.866,97.342 28.481 C 96.430 29.096,95.485 29.600,95.242 29.600 C 94.999 29.600,94.800 29.739,94.800 29.909 C 94.800 30.079,94.125 30.572,93.300 31.005 C 92.475 31.438,91.710 31.896,91.600 32.024 C 90.962 32.762,81.337 38.977,81.003 38.867 C 80.781 38.793,80.723 38.856,80.873 39.006 C 81.023 39.156,79.943 40.191,78.473 41.306 C 65.972 50.786,50.764 65.994,41.305 78.473 C 40.190 79.943,39.171 81.068,39.039 80.973 C 38.908 80.878,38.878 80.908,38.973 81.039 C 39.161 81.300,34.024 88.916,33.513 89.133 C 33.341 89.207,33.200 89.488,33.200 89.758 C 33.200 90.028,32.885 90.598,32.500 91.025 C 32.115 91.451,31.444 92.475,31.009 93.300 C 30.574 94.125,30.079 94.800,29.909 94.800 C 29.739 94.800,29.600 95.070,29.600 95.400 C 29.600 95.730,29.420 96.000,29.200 96.000 C 28.980 96.000,28.797 96.225,28.792 96.500 C 28.788 96.775,28.213 97.900,27.513 99.000 C 26.814 100.100,25.950 101.540,25.593 102.200 C 22.167 108.541,20.210 112.389,18.777 115.600 C 17.845 117.690,16.927 119.460,16.738 119.534 C 16.550 119.608,16.497 119.833,16.621 120.034 C 16.745 120.235,16.627 120.400,16.357 120.400 C 16.087 120.400,15.972 120.505,16.101 120.634 C 16.420 120.953,15.608 123.200,15.173 123.200 C 14.982 123.200,14.920 123.447,15.036 123.748 C 15.151 124.050,15.011 124.545,14.723 124.848 C 14.435 125.152,14.199 125.580,14.198 125.800 C 14.197 126.190,12.172 131.806,11.169 134.200 C 10.893 134.860,10.629 135.535,10.584 135.700 C 10.538 135.865,10.455 136.090,10.400 136.200 C 10.345 136.310,10.255 136.580,10.200 136.800 C 10.145 137.020,10.055 137.290,10.000 137.400 C 9.945 137.510,9.855 137.780,9.800 138.000 C 9.745 138.220,9.655 138.490,9.600 138.600 C 9.545 138.710,9.455 138.980,9.400 139.200 C 9.345 139.420,9.264 139.645,9.219 139.700 C 9.175 139.755,9.067 140.070,8.979 140.400 C 8.891 140.730,8.527 141.990,8.171 143.200 C -1.775 176.944,-2.535 214.443,6.026 249.000 C 6.680 251.640,7.481 254.475,7.805 255.300 C 8.128 256.125,8.303 256.800,8.191 256.800 C 8.080 256.800,8.252 257.430,8.574 258.200 C 8.896 258.970,9.056 259.600,8.931 259.600 C 8.805 259.600,8.926 259.870,9.200 260.200 C 9.474 260.530,9.564 260.800,9.400 260.800 C 9.236 260.800,9.326 261.070,9.600 261.400 C 9.874 261.730,9.964 262.000,9.800 262.000 C 9.636 262.000,9.726 262.270,10.000 262.600 C 10.274 262.930,10.364 263.200,10.200 263.200 C 10.036 263.200,10.076 263.425,10.289 263.700 C 10.729 264.268,14.200 273.587,14.200 274.200 C 14.200 274.420,14.435 274.848,14.723 275.152 C 15.011 275.455,15.151 275.950,15.036 276.252 C 14.920 276.553,14.982 276.800,15.173 276.800 C 15.608 276.800,16.420 279.047,16.101 279.366 C 15.972 279.495,16.087 279.600,16.357 279.600 C 16.627 279.600,16.736 279.780,16.600 280.000 C 16.464 280.220,16.543 280.400,16.776 280.400 C 17.009 280.400,17.200 280.585,17.200 280.812 C 17.200 281.373,23.642 294.422,25.390 297.400 C 26.164 298.720,26.925 300.070,27.080 300.400 C 27.235 300.730,27.866 301.746,28.481 302.658 C 29.096 303.570,29.600 304.515,29.600 304.758 C 29.600 305.001,29.739 305.200,29.909 305.200 C 30.079 305.200,30.572 305.875,31.005 306.700 C 31.438 307.525,31.896 308.290,32.024 308.400 C 32.627 308.921,38.988 318.632,38.900 318.897 C 38.845 319.064,38.953 319.200,39.141 319.200 C 39.329 319.200,40.352 320.325,41.416 321.700 C 54.024 337.997,71.178 354.216,87.000 364.799 C 88.760 365.976,90.260 367.088,90.333 367.270 C 90.407 367.451,90.722 367.600,91.033 367.600 C 91.345 367.600,91.602 367.735,91.605 367.900 C 91.607 368.065,92.327 368.544,93.205 368.964 C 94.082 369.385,94.800 369.880,94.800 370.064 C 94.800 370.249,94.994 370.400,95.232 370.400 C 95.470 370.400,96.595 371.012,97.732 371.760 C 101.697 374.369,115.922 381.704,118.700 382.572 C 119.195 382.727,119.600 383.032,119.600 383.251 C 119.600 383.469,119.780 383.536,120.000 383.400 C 120.220 383.264,120.400 383.305,120.400 383.491 C 120.400 383.677,120.789 383.859,121.264 383.895 C 121.739 383.931,122.234 384.104,122.364 384.280 C 122.494 384.456,122.870 384.651,123.200 384.714 C 124.327 384.929,128.199 386.549,128.445 386.909 C 128.579 387.107,128.807 387.239,128.951 387.204 C 129.573 387.051,131.600 387.698,131.600 388.049 C 131.600 388.261,131.825 388.391,132.100 388.336 C 132.714 388.215,135.616 389.158,136.300 389.701 C 136.575 389.919,136.800 389.964,136.800 389.800 C 136.800 389.636,137.098 389.749,137.461 390.051 C 137.825 390.353,138.185 390.555,138.261 390.500 C 138.338 390.445,138.445 390.414,138.500 390.431 C 138.555 390.447,138.911 390.521,139.290 390.594 C 139.670 390.667,140.750 390.990,141.690 391.313 C 174.433 402.538,222.430 402.604,258.000 391.472 C 258.770 391.231,259.535 391.004,259.700 390.967 C 259.865 390.930,260.090 390.855,260.200 390.800 C 260.310 390.745,260.580 390.655,260.800 390.600 C 261.020 390.545,261.290 390.455,261.400 390.400 C 261.510 390.345,261.780 390.255,262.000 390.200 C 262.220 390.145,262.490 390.055,262.600 390.000 C 262.710 389.945,262.980 389.855,263.200 389.800 C 263.420 389.745,263.690 389.655,263.800 389.600 C 263.910 389.545,264.135 389.462,264.300 389.416 C 264.465 389.371,265.107 389.123,265.726 388.866 C 266.345 388.610,267.200 388.400,267.626 388.400 C 268.052 388.400,268.400 388.248,268.400 388.063 C 268.400 387.752,271.290 386.650,272.200 386.615 C 272.420 386.607,272.690 386.483,272.800 386.340 C 272.910 386.197,273.360 386.017,273.800 385.940 C 274.240 385.863,274.848 385.565,275.152 385.277 C 275.455 384.989,275.950 384.849,276.252 384.964 C 276.553 385.080,276.800 385.018,276.800 384.827 C 276.800 384.415,279.197 383.512,279.206 383.921 C 279.209 384.074,279.344 384.004,279.506 383.764 C 279.668 383.524,281.690 382.467,284.000 381.414 C 291.102 378.179,299.373 373.808,302.672 371.546 C 303.592 370.916,304.459 370.400,304.599 370.400 C 304.739 370.400,305.443 369.950,306.164 369.400 C 306.886 368.850,307.684 368.400,307.938 368.400 C 308.192 368.400,308.400 368.220,308.400 368.000 C 308.400 367.780,308.587 367.600,308.816 367.600 C 309.421 367.600,319.828 360.095,325.295 355.716 C 339.887 344.027,354.186 328.639,364.429 313.600 C 365.403 312.170,366.290 310.910,366.401 310.800 C 366.511 310.690,366.856 310.105,367.168 309.500 C 367.480 308.895,367.885 308.400,368.068 308.400 C 368.250 308.400,368.400 308.192,368.400 307.938 C 368.400 307.684,368.850 306.886,369.400 306.164 C 369.950 305.443,370.400 304.739,370.400 304.599 C 370.400 304.459,370.913 303.592,371.540 302.672 C 373.679 299.537,378.604 290.234,381.426 284.000 C 382.472 281.690,383.524 279.668,383.764 279.506 C 384.004 279.344,384.074 279.209,383.921 279.206 C 383.512 279.197,384.415 276.800,384.827 276.800 C 385.018 276.800,385.080 276.553,384.964 276.252 C 384.849 275.950,385.047 275.410,385.406 275.052 C 385.764 274.693,385.958 274.400,385.837 274.400 C 385.568 274.400,387.639 268.680,388.010 268.400 C 388.155 268.290,388.379 267.660,388.508 267.000 C 388.637 266.340,388.965 265.260,389.237 264.600 C 389.510 263.940,389.771 263.265,389.816 263.100 C 389.862 262.935,389.945 262.710,390.000 262.600 C 390.055 262.490,390.145 262.220,390.200 262.000 C 390.255 261.780,390.345 261.510,390.400 261.400 C 390.455 261.290,390.545 261.020,390.600 260.800 C 390.655 260.580,390.736 260.355,390.781 260.300 C 390.825 260.245,390.933 259.930,391.021 259.600 C 391.109 259.270,391.473 258.010,391.829 256.800 C 401.582 223.712,402.533 187.002,394.509 153.311 L 393.054 147.200 374.727 147.200 C 364.647 147.200,356.400 147.267,356.400 147.350 C 356.400 147.432,356.675 148.279,357.011 149.232 C 357.347 150.185,357.533 151.197,357.424 151.482 C 357.315 151.767,357.419 152.000,357.655 152.000 C 357.892 152.000,357.986 152.258,357.865 152.574 C 357.744 152.890,357.819 153.206,358.031 153.277 C 358.243 153.348,358.458 153.989,358.508 154.702 C 358.559 155.415,358.756 155.999,358.947 155.999 C 359.137 156.000,359.199 156.360,359.084 156.800 C 358.969 157.240,359.059 157.600,359.284 157.600 C 359.509 157.600,359.599 157.960,359.484 158.400 C 359.369 158.840,359.410 159.200,359.576 159.200 C 360.229 159.200,362.697 172.115,363.858 181.608 C 364.734 188.765,364.867 209.289,364.083 216.400 C 363.058 225.712,360.271 240.800,359.576 240.800 C 359.410 240.800,359.369 241.160,359.484 241.600 C 359.599 242.040,359.509 242.400,359.284 242.400 C 359.059 242.400,358.969 242.760,359.084 243.200 C 359.199 243.640,359.109 244.000,358.884 244.000 C 358.659 244.000,358.576 244.388,358.700 244.863 C 358.845 245.415,358.773 245.631,358.500 245.462 C 358.232 245.296,358.152 245.495,358.284 245.999 C 358.399 246.440,358.298 246.800,358.059 246.800 C 357.820 246.800,357.729 247.070,357.855 247.400 C 357.982 247.730,357.876 248.000,357.619 248.000 C 357.363 248.000,357.267 248.184,357.406 248.410 C 357.654 248.811,355.909 254.619,355.066 256.200 C 354.831 256.640,354.581 257.352,354.509 257.783 C 354.438 258.213,354.249 258.663,354.090 258.783 C 353.930 258.902,353.737 259.360,353.660 259.800 C 353.583 260.240,353.403 260.690,353.260 260.800 C 353.117 260.910,352.937 261.360,352.860 261.800 C 352.783 262.240,352.603 262.690,352.460 262.800 C 352.317 262.910,352.139 263.360,352.063 263.800 C 351.923 264.620,345.908 276.846,343.574 281.055 C 340.155 287.218,334.140 296.400,333.521 296.400 C 333.345 296.400,333.200 296.651,333.200 296.958 C 333.200 297.264,332.660 298.093,332.000 298.800 C 331.340 299.507,330.800 300.173,330.800 300.281 C 330.800 301.278,318.878 314.495,318.300 314.138 C 318.054 313.986,317.994 314.066,318.157 314.330 C 318.527 314.930,314.930 318.527,314.330 318.157 C 314.064 317.992,313.986 318.054,314.142 318.306 C 314.555 318.974,298.310 333.200,297.134 333.200 C 296.978 333.200,296.302 333.700,295.632 334.312 C 294.382 335.454,285.236 341.268,281.055 343.578 C 276.770 345.946,264.613 351.925,263.800 352.063 C 263.360 352.139,262.754 352.433,262.454 352.718 C 262.153 353.003,261.705 353.168,261.457 353.086 C 261.210 353.003,260.757 353.186,260.452 353.491 C 260.147 353.796,259.662 353.956,259.374 353.845 C 259.087 353.735,258.795 353.810,258.726 354.011 C 258.657 354.212,258.240 354.436,257.800 354.508 C 257.360 354.580,256.640 354.831,256.200 355.066 C 254.592 355.923,247.608 358.052,247.210 357.806 C 246.984 357.667,246.800 357.764,246.800 358.023 C 246.800 358.296,246.465 358.406,245.999 358.284 C 245.495 358.152,245.296 358.232,245.462 358.500 C 245.631 358.773,245.415 358.845,244.863 358.700 C 244.388 358.576,244.000 358.659,244.000 358.884 C 244.000 359.109,243.640 359.199,243.200 359.084 C 242.760 358.969,242.400 359.050,242.400 359.264 C 242.400 359.479,242.040 359.540,241.600 359.400 C 241.160 359.260,240.800 359.308,240.800 359.506 C 240.800 360.243,228.649 362.603,218.396 363.858 C 211.235 364.734,190.713 364.867,183.600 364.083 C 174.288 363.058,159.200 360.271,159.200 359.576 C 159.200 359.410,158.840 359.369,158.400 359.484 C 157.960 359.599,157.600 359.509,157.600 359.284 C 157.600 359.059,157.240 358.969,156.800 359.084 C 156.360 359.199,156.000 359.137,155.999 358.947 C 155.999 358.756,155.422 358.579,154.717 358.553 C 154.012 358.528,153.371 358.313,153.292 358.076 C 153.213 357.839,152.890 357.744,152.574 357.865 C 152.258 357.986,152.000 357.876,152.000 357.619 C 152.000 357.363,151.816 357.267,151.591 357.406 C 151.187 357.655,147.130 356.448,144.400 355.266 C 143.630 354.932,142.648 354.596,142.217 354.519 C 141.787 354.443,141.337 354.249,141.217 354.090 C 141.098 353.930,140.640 353.737,140.200 353.660 C 139.760 353.583,139.310 353.403,139.200 353.260 C 139.090 353.117,138.640 352.937,138.200 352.860 C 137.760 352.783,137.310 352.603,137.200 352.460 C 137.090 352.317,136.730 352.149,136.400 352.087 C 135.612 351.939,131.058 349.949,130.800 349.640 C 130.690 349.508,128.718 348.500,126.418 347.400 C 122.514 345.533,116.165 342.016,112.000 339.414 C 107.777 336.776,103.600 333.855,103.600 333.540 C 103.600 333.353,103.324 333.200,102.987 333.200 C 102.651 333.200,102.271 332.930,102.145 332.600 C 102.018 332.270,101.658 332.000,101.345 332.000 C 101.031 332.000,100.671 331.730,100.545 331.400 C 100.418 331.070,100.073 330.800,99.777 330.800 C 99.482 330.800,99.096 330.571,98.920 330.290 C 98.744 330.010,98.150 329.489,97.600 329.133 C 93.999 326.799,81.457 314.956,81.873 314.282 C 82.011 314.059,81.946 313.986,81.730 314.120 C 80.897 314.635,66.800 298.310,66.800 296.830 C 66.800 296.594,66.644 296.400,66.453 296.400 C 65.002 296.400,48.535 267.412,47.933 263.800 C 47.860 263.360,47.683 262.910,47.540 262.800 C 47.397 262.690,47.217 262.240,47.140 261.800 C 47.063 261.360,46.883 260.910,46.740 260.800 C 46.597 260.690,46.417 260.240,46.340 259.800 C 46.263 259.360,46.070 258.902,45.910 258.783 C 45.751 258.663,45.562 258.213,45.491 257.783 C 45.419 257.352,45.169 256.640,44.934 256.200 C 44.091 254.619,42.346 248.811,42.594 248.410 C 42.733 248.184,42.637 248.000,42.381 248.000 C 42.124 248.000,42.014 247.742,42.135 247.426 C 42.256 247.110,42.161 246.787,41.924 246.708 C 41.687 246.629,41.472 245.988,41.447 245.283 C 41.421 244.578,41.244 244.001,41.053 244.001 C 40.863 244.000,40.801 243.640,40.916 243.200 C 41.031 242.760,40.941 242.400,40.716 242.400 C 40.491 242.400,40.401 242.040,40.516 241.600 C 40.631 241.160,40.543 240.800,40.320 240.800 C 40.097 240.800,40.030 240.499,40.171 240.132 C 40.312 239.765,40.247 239.352,40.026 239.216 C 38.265 238.128,35.200 213.219,35.200 200.000 C 35.200 186.993,38.315 161.456,39.972 160.881 C 40.161 160.815,40.223 160.410,40.111 159.981 C 39.999 159.551,40.091 159.200,40.316 159.200 C 40.541 159.200,40.631 158.840,40.516 158.400 C 40.401 157.960,40.491 157.600,40.716 157.600 C 40.941 157.600,41.031 157.240,40.916 156.800 C 40.801 156.360,40.863 156.000,41.053 155.999 C 41.244 155.999,41.441 155.415,41.492 154.702 C 41.542 153.989,41.757 153.348,41.969 153.277 C 42.181 153.206,42.256 152.890,42.135 152.574 C 42.014 152.258,42.124 152.000,42.381 152.000 C 42.637 152.000,42.745 151.835,42.620 151.632 C 42.383 151.249,44.165 145.195,44.925 143.800 C 45.165 143.360,45.419 142.648,45.491 142.217 C 45.562 141.787,45.751 141.337,45.910 141.217 C 46.070 141.098,46.263 140.640,46.340 140.200 C 46.417 139.760,46.597 139.310,46.740 139.200 C 46.883 139.090,47.063 138.640,47.140 138.200 C 47.217 137.760,47.487 137.268,47.740 137.106 C 47.993 136.944,48.074 136.809,47.920 136.806 C 46.291 136.770,64.798 103.600,66.447 103.600 C 66.641 103.600,66.800 103.401,66.800 103.158 C 66.800 102.770,68.349 100.574,69.874 98.800 C 70.158 98.470,72.023 96.220,74.020 93.800 C 81.474 84.766,100.859 66.800,103.154 66.800 C 103.399 66.800,103.600 66.641,103.600 66.447 C 103.600 65.115,132.052 48.800,134.374 48.800 C 134.624 48.800,135.272 48.509,135.814 48.154 C 136.356 47.799,136.803 47.664,136.806 47.854 C 136.809 48.044,136.944 47.993,137.106 47.740 C 137.268 47.487,137.760 47.217,138.200 47.140 C 138.640 47.063,139.090 46.883,139.200 46.740 C 139.310 46.597,139.760 46.417,140.200 46.340 C 140.640 46.263,141.098 46.070,141.217 45.910 C 141.337 45.751,141.787 45.553,142.217 45.471 C 142.648 45.389,143.540 45.091,144.200 44.809 C 146.475 43.837,151.319 42.426,151.659 42.636 C 151.847 42.752,152.000 42.637,152.000 42.381 C 152.000 42.124,152.258 42.014,152.574 42.135 C 152.890 42.256,153.206 42.181,153.277 41.969 C 153.348 41.757,153.989 41.542,154.702 41.492 C 155.415 41.441,155.999 41.244,155.999 41.053 C 156.000 40.863,156.360 40.801,156.800 40.916 C 157.240 41.031,157.600 40.941,157.600 40.716 C 157.600 40.491,157.960 40.401,158.400 40.516 C 158.840 40.631,159.200 40.541,159.200 40.316 C 159.200 40.091,159.551 39.999,159.981 40.111 C 160.410 40.223,160.815 40.167,160.881 39.986 C 161.479 38.337,186.968 35.199,199.758 35.201 C 213.173 35.203,238.121 38.254,239.216 40.026 C 239.352 40.247,239.765 40.312,240.132 40.171 C 240.522 40.021,240.800 40.110,240.800 40.384 C 240.800 40.672,241.110 40.756,241.600 40.600 C 242.040 40.460,242.400 40.521,242.400 40.736 C 242.400 40.950,242.760 41.031,243.200 40.916 C 243.640 40.801,244.000 40.863,244.001 41.053 C 244.001 41.244,244.585 41.441,245.298 41.492 C 246.011 41.542,246.656 41.768,246.731 41.994 C 246.807 42.220,247.016 42.314,247.197 42.202 C 247.377 42.090,248.667 42.357,250.063 42.794 C 251.458 43.232,252.645 43.592,252.700 43.595 C 252.755 43.598,252.800 35.352,252.800 25.271 L 252.800 6.942 246.500 5.453 C 228.567 1.218,208.254 -0.662,190.400 0.262 M318.800 34.500 L 318.800 53.400 300.155 53.288 C 286.532 53.207,281.360 53.301,280.955 53.637 C 280.501 54.014,280.400 56.611,280.400 67.857 L 280.400 81.615 299.600 81.508 L 318.800 81.400 318.800 100.500 L 318.800 119.600 332.400 119.600 L 346.000 119.600 346.000 100.500 L 346.000 81.400 365.200 81.511 L 384.400 81.622 384.400 67.404 L 384.400 53.185 365.300 53.208 L 346.200 53.230 346.096 34.415 L 345.992 15.600 332.396 15.600 L 318.800 15.600 318.800 34.500 M238.747 130.174 C 238.608 130.320,237.078 130.531,235.347 130.643 C 231.119 130.917,230.318 131.017,229.519 131.370 C 229.145 131.535,228.642 131.549,228.402 131.401 C 228.161 131.253,227.705 131.347,227.388 131.610 C 227.070 131.874,226.544 131.987,226.218 131.862 C 225.892 131.737,225.512 131.819,225.372 132.045 C 225.233 132.270,224.873 132.360,224.572 132.245 C 224.272 132.129,223.912 132.219,223.772 132.445 C 223.633 132.670,223.273 132.760,222.972 132.645 C 222.672 132.529,222.312 132.619,222.172 132.845 C 222.033 133.070,221.667 133.158,221.360 133.040 C 221.052 132.922,220.800 133.019,220.800 133.255 C 220.800 133.492,220.530 133.582,220.200 133.455 C 219.870 133.329,219.600 133.419,219.600 133.655 C 219.600 133.892,219.342 133.986,219.026 133.865 C 218.710 133.744,218.395 133.810,218.326 134.011 C 218.257 134.212,217.840 134.438,217.400 134.514 C 216.354 134.692,211.190 137.331,208.412 139.105 C 203.654 142.144,198.342 148.382,196.578 153.002 C 196.200 153.991,195.781 154.800,195.646 154.801 C 195.511 154.801,195.360 155.373,195.311 156.071 C 195.261 156.769,195.013 157.468,194.759 157.625 C 194.505 157.782,194.421 158.111,194.572 158.355 C 194.724 158.600,194.706 159.025,194.533 159.300 C 194.197 159.835,194.117 160.463,193.763 165.320 C 193.607 167.453,193.686 168.622,194.012 169.015 C 194.281 169.338,194.379 170.029,194.237 170.595 C 194.079 171.226,194.154 171.600,194.439 171.600 C 194.696 171.600,194.803 171.947,194.684 172.400 C 194.569 172.839,194.650 173.308,194.865 173.440 C 195.079 173.573,195.158 173.933,195.040 174.240 C 194.922 174.548,195.019 174.800,195.255 174.800 C 195.492 174.800,195.586 175.058,195.465 175.374 C 195.344 175.690,195.398 176.005,195.586 176.074 C 195.773 176.143,195.988 176.560,196.063 177.000 C 196.139 177.440,196.301 177.890,196.424 178.000 C 196.546 178.110,197.299 179.370,198.095 180.800 C 200.832 185.715,207.031 192.044,211.238 194.220 C 212.867 195.062,212.737 195.275,209.812 196.550 C 203.533 199.285,195.837 205.754,192.824 210.830 C 191.287 213.419,189.281 217.200,189.445 217.200 C 189.546 217.200,189.405 217.605,189.133 218.100 C 188.861 218.595,188.589 219.180,188.529 219.400 C 188.469 219.620,188.138 220.790,187.794 222.000 C 186.583 226.257,186.587 233.387,187.804 238.400 C 187.938 238.950,188.112 239.670,188.193 240.000 C 188.273 240.330,188.375 240.645,188.419 240.700 C 188.464 240.755,188.545 240.980,188.600 241.200 C 188.655 241.420,188.745 241.690,188.800 241.800 C 188.855 241.910,188.932 242.135,188.970 242.300 C 190.000 246.708,196.822 255.320,202.065 258.831 C 202.912 259.398,203.513 259.983,203.402 260.131 C 203.291 260.279,203.303 260.327,203.429 260.237 C 203.555 260.148,205.310 260.923,207.329 261.959 C 210.420 263.546,213.663 265.023,214.900 265.407 C 215.065 265.458,215.290 265.545,215.400 265.600 C 215.510 265.655,215.765 265.723,215.967 265.750 C 216.168 265.778,216.456 265.923,216.606 266.072 C 216.756 266.222,217.131 266.248,217.439 266.130 C 217.748 266.011,218.000 266.108,218.000 266.345 C 218.000 266.581,218.252 266.678,218.560 266.560 C 218.867 266.442,219.233 266.530,219.372 266.755 C 219.512 266.981,219.872 267.071,220.172 266.955 C 220.473 266.840,220.840 266.941,220.987 267.179 C 221.135 267.418,221.423 267.509,221.628 267.383 C 221.832 267.256,222.222 267.290,222.493 267.457 C 222.764 267.625,223.349 267.813,223.793 267.875 C 224.941 268.035,226.832 268.345,228.000 268.565 C 231.247 269.175,234.383 269.340,242.800 269.342 C 247.970 269.343,253.100 269.217,254.200 269.061 C 258.510 268.450,259.027 268.379,259.800 268.288 C 260.240 268.237,260.809 268.060,261.064 267.896 C 261.319 267.732,261.796 267.700,262.123 267.826 C 262.451 267.952,262.840 267.859,262.987 267.621 C 263.135 267.382,263.431 267.295,263.645 267.428 C 263.860 267.560,264.277 267.468,264.574 267.222 C 264.870 266.976,265.672 266.735,266.355 266.687 C 267.039 266.639,267.599 266.488,267.599 266.352 C 267.600 266.106,271.035 265.000,271.800 265.000 C 272.020 265.000,272.448 264.765,272.752 264.477 C 273.055 264.189,273.538 264.044,273.826 264.155 C 274.113 264.265,274.405 264.208,274.474 264.027 C 274.620 263.649,279.600 261.087,279.600 261.390 C 279.600 261.501,279.915 261.337,280.300 261.024 C 280.685 260.712,282.478 259.356,284.284 258.011 C 306.101 241.760,302.378 209.269,277.250 196.624 L 274.300 195.139 276.850 193.496 C 279.920 191.517,283.901 187.552,285.922 184.461 C 286.735 183.218,287.627 181.960,287.904 181.668 C 288.181 181.375,288.305 180.970,288.180 180.768 C 288.055 180.565,288.154 180.400,288.400 180.400 C 288.646 180.400,288.736 180.220,288.600 180.000 C 288.464 179.780,288.554 179.600,288.800 179.600 C 289.046 179.600,289.144 179.432,289.017 179.228 C 288.891 179.023,288.970 178.742,289.193 178.604 C 289.417 178.466,289.600 177.924,289.600 177.400 C 289.600 176.876,289.754 176.352,289.943 176.235 C 291.421 175.322,291.841 164.411,290.598 159.200 C 290.466 158.650,290.267 157.754,290.155 157.209 C 289.959 156.256,289.447 154.993,288.041 152.000 C 286.299 148.289,281.789 142.904,278.313 140.384 C 277.496 139.791,276.911 139.222,277.013 139.120 C 277.116 139.017,276.975 138.930,276.700 138.926 C 276.425 138.921,275.210 138.329,274.000 137.610 C 271.969 136.403,265.522 133.600,264.776 133.600 C 264.598 133.600,263.945 133.391,263.326 133.136 C 262.707 132.881,261.975 132.708,261.700 132.753 C 261.425 132.798,261.200 132.635,261.200 132.391 C 261.200 132.135,260.875 132.049,260.434 132.189 C 260.012 132.323,259.556 132.253,259.421 132.034 C 259.285 131.814,258.919 131.733,258.606 131.853 C 258.294 131.973,257.805 131.921,257.519 131.738 C 257.234 131.555,256.640 131.366,256.200 131.319 C 255.760 131.271,254.590 131.125,253.600 130.995 C 249.142 130.408,239.056 129.851,238.747 130.174 M101.867 131.867 C 101.720 132.013,101.600 138.313,101.600 145.867 L 101.600 159.600 114.000 159.600 L 126.400 159.600 126.400 214.000 L 126.400 268.400 144.000 268.400 L 161.600 268.400 161.600 200.243 C 161.600 138.461,161.541 132.063,160.967 131.843 C 160.100 131.510,102.200 131.534,101.867 131.867 M249.003 153.788 C 257.977 155.505,262.188 160.297,262.196 168.800 C 262.205 179.022,256.049 183.780,242.800 183.793 C 232.671 183.803,226.721 180.992,224.150 174.978 C 223.408 173.245,223.021 164.800,223.683 164.800 C 223.883 164.800,223.934 164.618,223.797 164.395 C 223.375 163.713,225.399 159.890,227.045 158.260 C 231.362 153.985,240.405 152.143,249.003 153.788 M248.400 209.381 C 249.170 209.489,250.518 209.680,251.396 209.805 C 252.273 209.929,253.164 210.204,253.376 210.416 C 253.587 210.627,254.044 210.800,254.391 210.800 C 254.738 210.800,256.097 211.354,257.411 212.030 C 269.053 218.027,268.832 236.188,257.050 241.759 C 249.594 245.283,235.987 245.270,228.484 241.731 C 224.059 239.644,219.369 233.418,220.215 230.753 C 220.347 230.337,220.263 230.000,220.027 230.000 C 219.758 230.000,219.600 228.743,219.600 226.600 C 219.600 224.730,219.763 223.200,219.963 223.200 C 220.162 223.200,220.231 222.840,220.116 222.400 C 219.994 221.935,220.104 221.600,220.377 221.600 C 220.636 221.600,220.730 221.411,220.587 221.179 C 219.156 218.863,227.346 211.285,232.405 210.246 C 232.952 210.133,233.850 209.939,234.400 209.815 C 234.950 209.690,236.192 209.504,237.160 209.401 C 238.128 209.298,238.978 209.155,239.050 209.084 C 239.230 208.903,246.694 209.140,248.400 209.381 " stroke="none" fill="#61646b" fill-rule="evenodd"></path><path id="path1" d="M188.291 0.289 C 189.001 0.377,190.261 0.379,191.091 0.292 C 191.921 0.205,191.340 0.133,189.800 0.131 C 188.260 0.129,187.581 0.200,188.291 0.289 M208.691 0.289 C 209.401 0.377,210.661 0.379,211.491 0.292 C 212.321 0.205,211.740 0.133,210.200 0.131 C 208.660 0.129,207.981 0.200,208.691 0.289 M182.705 0.683 C 183.202 0.779,183.922 0.775,184.305 0.675 C 184.687 0.575,184.280 0.496,183.400 0.501 C 182.520 0.505,182.207 0.587,182.705 0.683 M215.500 0.682 C 215.995 0.778,216.805 0.778,217.300 0.682 C 217.795 0.587,217.390 0.509,216.400 0.509 C 215.410 0.509,215.005 0.587,215.500 0.682 M178.305 1.083 C 178.802 1.179,179.522 1.175,179.905 1.075 C 180.287 0.975,179.880 0.896,179.000 0.901 C 178.120 0.905,177.807 0.987,178.305 1.083 M220.500 1.076 C 220.885 1.176,221.515 1.176,221.900 1.076 C 222.285 0.975,221.970 0.893,221.200 0.893 C 220.430 0.893,220.115 0.975,220.500 1.076 M174.500 1.476 C 174.885 1.576,175.515 1.576,175.900 1.476 C 176.285 1.375,175.970 1.293,175.200 1.293 C 174.430 1.293,174.115 1.375,174.500 1.476 M224.100 1.476 C 224.485 1.576,225.115 1.576,225.500 1.476 C 225.885 1.375,225.570 1.293,224.800 1.293 C 224.030 1.293,223.715 1.375,224.100 1.476 M157.400 4.191 C 156.300 4.474,155.760 4.709,156.200 4.714 C 156.640 4.719,157.900 4.492,159.000 4.209 C 160.100 3.926,160.640 3.691,160.200 3.686 C 159.760 3.681,158.500 3.908,157.400 4.191 M242.000 4.400 C 242.550 4.576,243.360 4.720,243.800 4.720 C 244.433 4.720,244.392 4.654,243.600 4.400 C 243.050 4.224,242.240 4.080,241.800 4.080 C 241.167 4.080,241.208 4.146,242.000 4.400 M152.000 5.400 C 151.010 5.687,150.470 5.936,150.800 5.953 C 151.130 5.970,152.300 5.734,153.400 5.428 C 154.500 5.122,155.040 4.873,154.600 4.875 C 154.160 4.877,152.990 5.113,152.000 5.400 M248.200 5.826 C 250.180 6.350,251.974 6.726,252.187 6.661 C 252.635 6.523,245.885 4.782,245.114 4.836 C 244.832 4.856,246.220 5.301,248.200 5.826 M148.200 6.400 C 147.696 6.617,147.622 6.744,148.000 6.744 C 148.330 6.744,148.960 6.589,149.400 6.400 C 149.904 6.183,149.978 6.056,149.600 6.056 C 149.270 6.056,148.640 6.211,148.200 6.400 M252.896 25.100 C 252.843 35.275,252.733 43.600,252.650 43.600 C 252.568 43.600,251.803 43.357,250.950 43.061 C 248.533 42.220,247.200 41.955,247.200 42.314 C 247.200 42.678,252.765 44.568,253.037 44.296 C 253.131 44.202,253.159 35.682,253.100 25.363 L 252.992 6.600 252.896 25.100 M143.900 7.476 C 143.515 7.576,143.200 7.816,143.200 8.009 C 143.200 8.201,143.740 8.170,144.400 7.940 C 146.200 7.313,145.832 6.971,143.900 7.476 M135.498 10.066 C 133.571 10.727,132.093 11.426,132.212 11.619 C 132.423 11.961,132.828 11.853,135.400 10.772 C 136.060 10.494,136.735 10.229,136.900 10.184 C 137.065 10.138,137.290 10.055,137.400 10.000 C 137.510 9.945,137.780 9.855,138.000 9.800 C 138.220 9.745,138.490 9.655,138.600 9.600 C 138.710 9.545,138.965 9.478,139.167 9.450 C 139.368 9.422,139.668 9.265,139.833 9.100 C 140.382 8.551,139.036 8.851,135.498 10.066 M129.900 12.065 C 129.295 12.286,128.800 12.651,128.800 12.876 C 128.800 13.109,129.102 13.161,129.500 12.997 C 129.885 12.839,130.515 12.619,130.900 12.508 C 131.285 12.397,131.600 12.148,131.600 11.953 C 131.600 11.525,131.328 11.543,129.900 12.065 M126.700 13.265 C 126.095 13.486,125.600 13.851,125.600 14.076 C 125.600 14.309,125.902 14.361,126.300 14.197 C 126.685 14.039,127.315 13.819,127.700 13.708 C 128.085 13.597,128.400 13.348,128.400 13.153 C 128.400 12.725,128.128 12.743,126.700 13.265 M122.700 14.882 C 121.655 15.332,120.800 15.872,120.800 16.083 C 120.800 16.294,120.936 16.407,121.102 16.333 C 121.268 16.260,122.258 15.861,123.302 15.446 C 124.346 15.031,125.200 14.536,125.200 14.346 C 125.200 13.873,124.894 13.938,122.700 14.882 M318.000 34.200 C 318.000 46.867,318.139 53.600,318.400 53.600 C 318.661 53.600,318.800 47.000,318.800 34.600 L 318.800 15.600 332.400 15.600 L 346.000 15.600 346.000 34.376 C 346.000 46.463,346.143 53.241,346.400 53.400 C 346.665 53.564,346.800 47.071,346.800 34.224 L 346.800 14.800 332.400 14.800 L 318.000 14.800 318.000 34.200 M115.210 18.052 C 113.346 18.927,111.726 19.781,111.610 19.950 C 111.495 20.119,109.092 21.476,106.271 22.966 C 103.450 24.456,101.226 25.759,101.328 25.861 C 101.430 25.963,103.198 25.111,105.257 23.967 C 109.028 21.871,117.176 17.915,118.751 17.416 C 119.663 17.126,119.927 16.380,119.100 16.430 C 118.825 16.447,117.075 17.177,115.210 18.052 M98.597 27.062 C 93.894 29.563,81.200 38.142,81.200 38.820 C 81.200 39.029,81.047 39.155,80.860 39.100 C 79.536 38.711,59.834 56.148,52.952 63.800 C 47.195 70.201,38.951 80.354,39.100 80.860 C 39.155 81.047,39.029 81.200,38.820 81.200 C 38.082 81.200,27.369 97.252,26.392 99.820 C 25.731 101.560,26.810 100.425,28.000 98.129 C 28.550 97.068,29.135 96.140,29.300 96.067 C 29.465 95.993,29.600 95.678,29.600 95.367 C 29.600 95.055,29.739 94.800,29.909 94.800 C 30.079 94.800,30.574 94.125,31.009 93.300 C 31.444 92.475,32.115 91.451,32.500 91.025 C 32.885 90.598,33.200 90.028,33.200 89.758 C 33.200 89.488,33.347 89.207,33.528 89.133 C 33.708 89.060,34.639 87.830,35.597 86.400 C 48.114 67.716,68.362 47.624,87.600 34.801 C 89.690 33.407,91.490 32.161,91.600 32.030 C 91.710 31.899,92.475 31.438,93.300 31.005 C 94.125 30.572,94.800 30.079,94.800 29.909 C 94.800 29.739,94.999 29.600,95.242 29.600 C 95.485 29.600,96.484 29.060,97.462 28.400 C 98.440 27.740,99.389 27.200,99.571 27.200 C 99.753 27.200,100.126 26.930,100.400 26.600 C 101.072 25.790,100.911 25.831,98.597 27.062 M192.915 35.496 C 194.188 35.576,196.168 35.575,197.315 35.494 C 198.462 35.414,197.420 35.349,195.000 35.350 C 192.580 35.351,191.642 35.416,192.915 35.496 M203.113 35.495 C 204.276 35.576,206.076 35.576,207.113 35.493 C 208.151 35.411,207.200 35.345,205.000 35.346 C 202.800 35.347,201.951 35.414,203.113 35.495 M186.105 35.887 C 186.714 35.979,187.614 35.977,188.105 35.882 C 188.597 35.787,188.100 35.711,187.000 35.714 C 185.900 35.717,185.497 35.795,186.105 35.887 M212.105 35.887 C 212.714 35.979,213.614 35.977,214.105 35.882 C 214.597 35.787,214.100 35.711,213.000 35.714 C 211.900 35.717,211.497 35.795,212.105 35.887 M181.905 36.283 C 182.402 36.379,183.122 36.375,183.505 36.275 C 183.887 36.175,183.480 36.096,182.600 36.101 C 181.720 36.105,181.407 36.187,181.905 36.283 M216.705 36.283 C 217.202 36.379,217.922 36.375,218.305 36.275 C 218.687 36.175,218.280 36.096,217.400 36.101 C 216.520 36.105,216.207 36.187,216.705 36.283 M178.500 36.676 C 178.885 36.776,179.515 36.776,179.900 36.676 C 180.285 36.575,179.970 36.493,179.200 36.493 C 178.430 36.493,178.115 36.575,178.500 36.676 M220.100 36.676 C 220.485 36.776,221.115 36.776,221.500 36.676 C 221.885 36.575,221.570 36.493,220.800 36.493 C 220.030 36.493,219.715 36.575,220.100 36.676 M235.872 39.339 C 236.792 39.593,237.677 39.935,237.839 40.100 C 238.236 40.504,239.200 40.482,239.200 40.069 C 239.200 39.886,238.286 39.526,237.169 39.269 C 234.599 38.675,233.650 38.727,235.872 39.339 M161.700 39.482 C 160.585 39.697,160.509 40.400,161.600 40.400 C 162.040 40.400,162.400 40.233,162.400 40.028 C 162.400 39.823,162.805 39.578,163.300 39.482 C 164.027 39.342,164.046 39.309,163.400 39.309 C 162.960 39.309,162.195 39.387,161.700 39.482 M157.600 40.800 C 157.600 41.020,157.870 41.200,158.200 41.200 C 158.530 41.200,158.800 41.020,158.800 40.800 C 158.800 40.580,158.530 40.400,158.200 40.400 C 157.870 40.400,157.600 40.580,157.600 40.800 M156.000 41.200 C 156.000 41.420,156.270 41.600,156.600 41.600 C 156.930 41.600,157.200 41.420,157.200 41.200 C 157.200 40.980,156.930 40.800,156.600 40.800 C 156.270 40.800,156.000 40.980,156.000 41.200 M242.800 41.200 C 242.800 41.420,243.070 41.600,243.400 41.600 C 243.730 41.600,244.000 41.420,244.000 41.200 C 244.000 40.980,243.730 40.800,243.400 40.800 C 243.070 40.800,242.800 40.980,242.800 41.200 M154.100 41.482 C 153.605 41.578,153.200 41.844,153.200 42.074 C 153.200 42.314,153.586 42.390,154.100 42.252 C 154.595 42.119,155.135 42.008,155.300 42.005 C 155.465 42.002,155.600 41.820,155.600 41.600 C 155.600 41.380,155.465 41.225,155.300 41.254 C 155.135 41.284,154.595 41.387,154.100 41.482 M244.400 41.549 C 244.400 41.971,246.387 42.546,246.714 42.219 C 247.020 41.913,246.768 41.753,245.500 41.449 C 244.895 41.304,244.400 41.349,244.400 41.549 M148.200 43.379 C 146.660 43.882,144.860 44.525,144.200 44.808 C 143.540 45.091,142.648 45.389,142.217 45.471 C 141.787 45.553,141.337 45.751,141.217 45.910 C 141.098 46.070,140.640 46.262,140.200 46.338 C 139.257 46.501,138.980 46.713,139.297 47.030 C 139.424 47.157,141.209 46.636,143.264 45.872 C 145.319 45.108,148.035 44.162,149.300 43.769 C 150.565 43.376,151.600 42.907,151.600 42.727 C 151.600 42.290,151.443 42.320,148.200 43.379 M137.900 47.103 C 137.515 47.189,137.200 47.425,137.200 47.629 C 137.200 48.098,137.634 48.093,138.388 47.616 C 139.107 47.161,138.850 46.892,137.900 47.103 M135.771 48.191 C 135.347 48.512,135.180 48.778,135.400 48.781 C 135.994 48.791,137.010 48.077,136.759 47.826 C 136.640 47.706,136.195 47.871,135.771 48.191 M132.400 49.548 C 131.630 49.942,128.416 51.565,125.257 53.156 C 122.099 54.747,119.586 56.119,119.673 56.207 C 119.761 56.294,123.245 54.664,127.416 52.584 C 131.587 50.505,134.730 48.810,134.400 48.818 C 134.070 48.826,133.170 49.154,132.400 49.548 M384.400 67.400 C 384.400 76.600,384.541 81.600,384.800 81.600 C 385.059 81.600,385.200 76.600,385.200 67.400 C 385.200 58.200,385.059 53.200,384.800 53.200 C 384.541 53.200,384.400 58.200,384.400 67.400 M115.400 58.467 C 112.960 59.819,103.600 66.148,103.600 66.447 C 103.600 66.641,103.399 66.800,103.154 66.800 C 100.438 66.800,70.400 95.619,70.400 98.224 C 70.400 98.670,70.862 98.192,73.228 95.300 C 76.500 91.300,91.287 76.511,95.279 73.246 C 98.486 70.623,99.696 69.756,108.473 63.800 C 111.391 61.820,114.069 59.930,114.424 59.600 C 114.779 59.270,115.414 58.786,115.835 58.524 C 116.803 57.920,116.466 57.877,115.400 58.467 M318.267 81.467 C 317.817 81.916,317.949 119.600,318.400 119.600 C 318.661 119.600,318.800 112.933,318.800 100.400 C 318.800 89.840,318.740 81.200,318.667 81.200 C 318.593 81.200,318.413 81.320,318.267 81.467 M346.000 100.400 C 346.000 112.933,346.139 119.600,346.400 119.600 C 346.661 119.600,346.800 112.933,346.800 100.400 C 346.800 87.867,346.661 81.200,346.400 81.200 C 346.139 81.200,346.000 87.867,346.000 100.400 M68.285 100.790 C 67.468 101.884,66.800 102.964,66.800 103.190 C 66.800 103.415,66.641 103.600,66.447 103.600 C 66.253 103.600,64.474 106.075,62.494 109.100 C 58.797 114.748,56.167 119.200,56.527 119.200 C 56.639 119.200,57.377 118.045,58.167 116.633 C 58.956 115.221,59.746 114.006,59.922 113.933 C 60.098 113.860,61.286 112.190,62.562 110.223 C 63.839 108.255,65.813 105.375,66.949 103.823 C 68.086 102.270,69.331 100.505,69.717 99.900 C 70.908 98.033,69.855 98.687,68.285 100.790 M24.620 103.160 C 24.052 104.282,23.662 105.200,23.755 105.200 C 24.076 105.200,26.070 101.537,25.862 101.329 C 25.748 101.214,25.189 102.038,24.620 103.160 M21.775 108.459 C 20.963 110.077,20.152 111.494,19.973 111.609 C 19.059 112.196,15.722 120.400,16.397 120.400 C 16.644 120.400,16.745 120.235,16.621 120.034 C 16.497 119.833,16.550 119.608,16.738 119.534 C 16.927 119.460,17.843 117.690,18.773 115.600 C 19.704 113.510,21.176 110.471,22.045 108.846 C 22.914 107.221,23.541 105.808,23.438 105.705 C 23.335 105.602,22.587 106.841,21.775 108.459 M52.934 125.664 C 49.288 132.815,47.504 136.800,47.950 136.800 C 48.124 136.800,48.942 135.225,49.769 133.300 C 50.596 131.375,52.435 127.574,53.856 124.854 C 55.278 122.133,56.356 119.822,56.251 119.718 C 56.147 119.614,54.654 122.290,52.934 125.664 M15.264 121.819 C 14.705 123.045,14.694 123.200,15.161 123.200 C 15.359 123.200,15.710 122.660,15.940 122.000 C 16.449 120.541,15.912 120.397,15.264 121.819 M14.233 124.257 C 13.899 125.130,14.343 125.536,14.816 124.788 C 15.289 124.040,15.299 123.600,14.843 123.600 C 14.646 123.600,14.372 123.896,14.233 124.257 M12.602 128.500 C 11.062 132.595,8.800 139.284,8.800 139.745 C 8.800 140.208,9.378 139.694,9.450 139.167 C 9.478 138.965,9.545 138.710,9.600 138.600 C 9.655 138.490,9.745 138.220,9.800 138.000 C 9.855 137.780,9.945 137.510,10.000 137.400 C 10.055 137.290,10.145 137.020,10.200 136.800 C 10.255 136.580,10.345 136.310,10.400 136.200 C 10.455 136.090,10.538 135.865,10.584 135.700 C 10.629 135.535,10.892 134.860,11.168 134.200 C 11.443 133.540,12.173 131.650,12.789 130.000 C 13.405 128.350,14.039 126.685,14.198 126.300 C 14.358 125.910,14.310 125.600,14.089 125.600 C 13.871 125.600,13.202 126.905,12.602 128.500 M234.659 130.419 C 234.942 130.702,235.720 130.716,237.039 130.464 L 239.000 130.089 236.620 130.045 C 234.960 130.014,234.367 130.127,234.659 130.419 M247.400 130.423 C 249.595 130.877,250.400 130.871,250.400 130.400 C 250.400 130.174,249.397 130.020,248.100 130.046 C 245.825 130.092,245.817 130.096,247.400 130.423 M230.800 130.800 C 230.800 131.275,231.495 131.275,232.600 130.800 C 233.270 130.512,233.189 130.452,232.100 130.428 C 231.385 130.413,230.800 130.580,230.800 130.800 M252.200 130.800 C 253.305 131.275,254.000 131.275,254.000 130.800 C 254.000 130.580,253.415 130.413,252.700 130.428 C 251.611 130.452,251.530 130.512,252.200 130.800 M228.400 131.200 C 228.400 131.420,228.659 131.600,228.976 131.600 C 229.293 131.600,229.664 131.420,229.800 131.200 C 229.936 130.980,229.677 130.800,229.224 130.800 C 228.771 130.800,228.400 130.980,228.400 131.200 M255.200 131.200 C 255.976 131.701,256.400 131.701,256.400 131.200 C 256.400 130.980,255.995 130.803,255.500 130.806 C 254.772 130.811,254.715 130.886,255.200 131.200 M101.292 145.500 L 101.384 159.800 101.592 145.800 L 101.800 131.800 131.700 131.800 C 148.145 131.800,161.600 131.665,161.600 131.500 C 161.600 131.335,148.010 131.200,131.400 131.200 L 101.200 131.200 101.292 145.500 M226.000 131.600 C 226.000 131.820,226.259 132.000,226.576 132.000 C 226.893 132.000,227.264 131.820,227.400 131.600 C 227.536 131.380,227.277 131.200,226.824 131.200 C 226.371 131.200,226.000 131.380,226.000 131.600 M257.400 131.600 C 257.536 131.820,257.907 132.000,258.224 132.000 C 258.541 132.000,258.800 131.820,258.800 131.600 C 258.800 131.380,258.429 131.200,257.976 131.200 C 257.523 131.200,257.264 131.380,257.400 131.600 M259.520 132.080 C 259.893 132.453,260.107 132.453,260.480 132.080 C 260.853 131.707,260.747 131.600,260.000 131.600 C 259.253 131.600,259.147 131.707,259.520 132.080 M261.200 132.418 C 261.200 132.647,261.425 132.799,261.700 132.754 C 261.975 132.710,262.470 132.785,262.800 132.920 C 263.130 133.056,264.660 133.597,266.200 134.124 C 276.156 137.529,284.424 144.296,288.041 152.000 C 289.469 155.042,289.961 156.263,290.176 157.309 C 290.299 157.909,290.501 158.891,290.624 159.491 C 290.916 160.910,291.200 161.174,291.200 160.026 C 291.200 158.242,288.721 151.750,286.960 148.919 C 284.786 145.426,278.778 139.260,277.500 139.211 C 277.335 139.205,276.844 138.844,276.409 138.409 C 274.131 136.131,261.200 131.037,261.200 132.418 M217.397 133.765 C 207.133 137.719,197.705 146.356,195.419 153.900 C 194.913 155.569,195.885 154.816,196.578 153.002 C 198.342 148.382,203.654 142.144,208.412 139.105 C 211.190 137.331,216.354 134.692,217.400 134.514 C 217.840 134.438,218.257 134.212,218.326 134.011 C 218.395 133.810,218.710 133.744,219.026 133.865 C 219.342 133.986,219.600 133.892,219.600 133.655 C 219.600 133.419,219.870 133.329,220.200 133.455 C 220.530 133.582,220.800 133.486,220.800 133.243 C 220.800 132.611,220.123 132.715,217.397 133.765 M47.084 138.000 C 46.969 138.440,47.038 138.800,47.237 138.800 C 47.437 138.800,47.600 138.725,47.600 138.633 C 47.600 138.541,47.709 138.181,47.843 137.833 C 47.976 137.485,47.907 137.200,47.689 137.200 C 47.472 137.200,47.199 137.560,47.084 138.000 M46.400 139.800 C 46.400 140.130,46.415 140.515,46.434 140.655 C 46.453 140.796,46.277 141.028,46.044 141.173 C 45.811 141.317,45.562 141.787,45.491 142.217 C 45.419 142.648,45.165 143.360,44.925 143.800 C 43.779 145.904,42.032 152.708,42.931 151.567 C 43.049 151.417,46.525 141.621,47.071 139.900 C 47.193 139.515,47.092 139.200,46.847 139.200 C 46.601 139.200,46.400 139.470,46.400 139.800 M7.429 144.229 C 7.281 144.815,7.251 145.384,7.361 145.494 C 7.471 145.604,7.681 145.215,7.829 144.629 C 7.976 144.042,8.006 143.473,7.896 143.363 C 7.786 143.253,7.576 143.642,7.429 144.229 M355.600 147.065 C 355.600 147.825,356.993 151.600,357.273 151.600 C 357.736 151.600,357.684 151.138,357.000 149.200 C 356.670 148.265,356.400 147.434,356.400 147.354 C 356.400 147.274,364.725 147.159,374.900 147.100 L 393.400 146.992 374.500 146.896 C 364.105 146.843,355.600 146.919,355.600 147.065 M6.229 148.629 C 6.081 149.215,6.038 149.772,6.132 149.866 C 6.227 149.960,6.424 149.558,6.571 148.971 C 6.719 148.385,6.762 147.828,6.668 147.734 C 6.573 147.640,6.376 148.042,6.229 148.629 M393.210 147.833 C 393.229 148.554,395.128 155.389,395.164 154.867 C 395.205 154.262,393.621 147.889,393.366 147.633 C 393.275 147.542,393.204 147.632,393.210 147.833 M5.229 152.629 C 4.954 153.857,4.806 154.939,4.900 155.033 C 4.994 155.128,5.297 154.200,5.571 152.971 C 5.846 151.743,5.994 150.661,5.900 150.567 C 5.806 150.472,5.503 151.400,5.229 152.629 M41.482 154.300 C 41.280 155.351,41.409 155.924,41.767 155.566 C 42.186 155.147,42.452 153.200,42.090 153.200 C 41.872 153.200,41.598 153.695,41.482 154.300 M240.700 153.495 C 241.855 153.576,243.745 153.576,244.900 153.495 C 246.055 153.414,245.110 153.348,242.800 153.348 C 240.490 153.348,239.545 153.414,240.700 153.495 M357.789 154.299 C 358.085 155.478,358.302 155.833,358.565 155.567 C 358.875 155.253,358.307 153.200,357.910 153.200 C 357.677 153.200,357.627 153.654,357.789 154.299 M251.786 154.811 C 253.098 155.282,254.718 156.045,255.386 156.507 C 256.956 157.594,259.680 160.000,259.339 160.000 C 259.194 160.000,259.401 160.360,259.799 160.799 C 260.197 161.239,260.849 162.544,261.248 163.699 C 261.647 164.855,261.980 165.440,261.987 165.000 C 262.051 160.935,255.938 155.037,250.775 154.182 C 249.889 154.036,250.248 154.259,251.786 154.811 M230.480 155.736 C 227.285 157.409,222.705 163.239,223.759 164.292 C 223.892 164.425,224.045 164.458,224.100 164.367 C 224.155 164.275,224.830 162.965,225.600 161.456 C 227.027 158.659,228.505 157.185,231.400 155.672 C 232.280 155.212,232.820 154.836,232.600 154.836 C 232.380 154.836,231.426 155.241,230.480 155.736 M194.624 156.247 C 194.387 157.192,194.580 157.988,194.944 157.567 C 195.321 157.129,195.572 155.200,195.251 155.200 C 195.051 155.200,194.768 155.671,194.624 156.247 M4.222 157.022 C 4.072 157.825,4.028 158.562,4.126 158.660 C 4.224 158.757,4.427 158.181,4.578 157.378 C 4.728 156.575,4.772 155.838,4.674 155.740 C 4.576 155.643,4.373 156.219,4.222 157.022 M395.280 156.200 C 395.280 156.640,395.424 157.450,395.600 158.000 C 395.854 158.792,395.920 158.833,395.920 158.200 C 395.920 157.760,395.776 156.950,395.600 156.400 C 395.346 155.608,395.280 155.567,395.280 156.200 M40.800 156.600 C 40.800 156.930,40.980 157.200,41.200 157.200 C 41.420 157.200,41.600 156.930,41.600 156.600 C 41.600 156.270,41.420 156.000,41.200 156.000 C 40.980 156.000,40.800 156.270,40.800 156.600 M358.400 156.600 C 358.400 156.930,358.580 157.200,358.800 157.200 C 359.020 157.200,359.200 156.930,359.200 156.600 C 359.200 156.270,359.020 156.000,358.800 156.000 C 358.580 156.000,358.400 156.270,358.400 156.600 M40.400 158.200 C 40.400 158.530,40.580 158.800,40.800 158.800 C 41.020 158.800,41.200 158.530,41.200 158.200 C 41.200 157.870,41.020 157.600,40.800 157.600 C 40.580 157.600,40.400 157.870,40.400 158.200 M358.800 158.200 C 358.800 158.530,358.980 158.800,359.200 158.800 C 359.420 158.800,359.600 158.530,359.600 158.200 C 359.600 157.870,359.420 157.600,359.200 157.600 C 358.980 157.600,358.800 157.870,358.800 158.200 M194.000 158.800 C 194.000 159.547,194.107 159.653,194.480 159.280 C 194.853 158.907,194.853 158.693,194.480 158.320 C 194.107 157.947,194.000 158.053,194.000 158.800 M359.463 160.500 C 359.596 161.215,359.862 161.971,360.053 162.180 C 360.244 162.389,360.400 162.914,360.400 163.347 C 360.400 163.779,360.506 164.027,360.636 163.898 C 360.962 163.571,359.949 159.200,359.546 159.200 C 359.367 159.200,359.329 159.785,359.463 160.500 M193.606 161.700 C 193.611 162.686,193.706 162.855,194.000 162.400 C 194.508 161.614,194.508 160.400,194.000 160.400 C 193.780 160.400,193.603 160.985,193.606 161.700 M39.228 163.031 C 38.953 164.258,38.817 165.350,38.925 165.458 C 39.032 165.566,39.244 164.922,39.395 164.027 C 39.547 163.132,39.834 162.400,40.035 162.400 C 40.236 162.400,40.400 162.040,40.400 161.600 C 40.400 160.013,39.717 160.847,39.228 163.031 M291.115 162.800 C 291.212 163.460,291.360 164.000,291.445 164.000 C 291.530 164.000,291.600 163.460,291.600 162.800 C 291.600 162.140,291.451 161.600,291.269 161.600 C 291.087 161.600,291.018 162.140,291.115 162.800 M223.200 165.600 C 223.200 166.040,223.380 166.400,223.600 166.400 C 223.820 166.400,224.000 166.040,224.000 165.600 C 224.000 165.160,223.820 164.800,223.600 164.800 C 223.380 164.800,223.200 165.160,223.200 165.600 M262.134 168.800 C 262.134 170.450,262.205 171.125,262.291 170.300 C 262.378 169.475,262.378 168.125,262.291 167.300 C 262.205 166.475,262.134 167.150,262.134 168.800 M193.600 169.776 C 193.600 170.339,193.780 170.800,194.000 170.800 C 194.220 170.800,194.400 170.451,194.400 170.024 C 194.400 169.597,194.220 169.136,194.000 169.000 C 193.773 168.860,193.600 169.196,193.600 169.776 M291.293 170.800 C 291.293 171.570,291.375 171.885,291.476 171.500 C 291.576 171.115,291.576 170.485,291.476 170.100 C 291.375 169.715,291.293 170.030,291.293 170.800 M223.200 171.796 C 223.200 175.407,228.108 181.197,232.000 182.177 C 232.592 182.326,232.348 182.092,231.400 181.603 C 228.584 180.151,225.316 176.360,224.507 173.608 C 223.843 171.348,223.200 170.456,223.200 171.796 M194.000 172.200 C 194.000 172.530,194.180 172.800,194.400 172.800 C 194.620 172.800,194.800 172.530,194.800 172.200 C 194.800 171.870,194.620 171.600,194.400 171.600 C 194.180 171.600,194.000 171.870,194.000 172.200 M261.274 173.688 C 260.503 176.312,256.023 180.839,253.148 181.898 C 250.014 183.053,249.663 183.230,251.000 182.981 C 256.174 182.014,262.592 175.888,261.929 172.548 C 261.858 172.190,261.563 172.703,261.274 173.688 M1.293 175.200 C 1.293 175.970,1.375 176.285,1.476 175.900 C 1.576 175.515,1.576 174.885,1.476 174.500 C 1.375 174.115,1.293 174.430,1.293 175.200 M398.501 175.400 C 398.505 176.280,398.587 176.593,398.683 176.095 C 398.779 175.598,398.775 174.878,398.675 174.495 C 398.575 174.113,398.496 174.520,398.501 175.400 M195.357 176.633 C 195.491 176.981,195.600 177.341,195.600 177.433 C 195.600 177.525,195.763 177.600,195.963 177.600 C 196.162 177.600,196.231 177.240,196.116 176.800 C 196.001 176.360,195.728 176.000,195.511 176.000 C 195.293 176.000,195.224 176.285,195.357 176.633 M289.892 176.242 C 289.731 176.402,289.605 176.908,289.612 177.367 C 289.623 178.136,289.656 178.145,290.040 177.485 C 290.488 176.716,290.373 175.760,289.892 176.242 M0.901 179.000 C 0.905 179.880,0.987 180.193,1.083 179.695 C 1.179 179.198,1.175 178.478,1.075 178.095 C 0.975 177.713,0.896 178.120,0.901 179.000 M398.901 179.000 C 398.905 179.880,398.987 180.193,399.083 179.695 C 399.179 179.198,399.175 178.478,399.075 178.095 C 398.975 177.713,398.896 178.120,398.901 179.000 M36.493 179.200 C 36.493 179.970,36.575 180.285,36.676 179.900 C 36.776 179.515,36.776 178.885,36.676 178.500 C 36.575 178.115,36.493 178.430,36.493 179.200 M196.000 178.225 C 196.000 180.883,203.660 189.727,209.038 193.278 L 211.476 194.888 207.945 196.693 C 206.003 197.685,203.556 199.285,202.507 200.248 L 200.600 201.999 203.917 199.836 C 205.741 198.646,208.396 197.166,209.817 196.547 C 212.874 195.215,212.890 195.166,210.700 193.869 C 205.957 191.060,200.327 185.139,197.800 180.300 C 196.768 178.323,196.000 177.438,196.000 178.225 M363.293 179.200 C 363.293 179.970,363.375 180.285,363.476 179.900 C 363.576 179.515,363.576 178.885,363.476 178.500 C 363.375 178.115,363.293 178.430,363.293 179.200 M288.600 180.000 C 288.736 180.220,288.646 180.400,288.400 180.400 C 288.154 180.400,288.055 180.565,288.180 180.768 C 288.305 180.970,288.181 181.375,287.904 181.668 C 287.627 181.960,286.729 183.227,285.908 184.481 C 285.088 185.736,283.328 187.876,281.996 189.236 C 280.665 190.596,279.689 191.820,279.828 191.955 C 280.349 192.463,286.254 185.690,287.717 182.905 C 289.333 179.831,289.407 179.600,288.776 179.600 C 288.543 179.600,288.464 179.780,288.600 180.000 M36.101 182.600 C 36.105 183.480,36.187 183.793,36.283 183.295 C 36.379 182.798,36.375 182.078,36.275 181.695 C 36.175 181.313,36.096 181.720,36.101 182.600 M363.701 182.600 C 363.705 183.480,363.787 183.793,363.883 183.295 C 363.979 182.798,363.975 182.078,363.875 181.695 C 363.775 181.313,363.696 181.720,363.701 182.600 M0.501 183.400 C 0.505 184.280,0.587 184.593,0.683 184.095 C 0.779 183.598,0.775 182.878,0.675 182.495 C 0.575 182.113,0.496 182.520,0.501 183.400 M399.309 183.600 C 399.309 184.590,399.387 184.995,399.482 184.500 C 399.578 184.005,399.578 183.195,399.482 182.700 C 399.387 182.205,399.309 182.610,399.309 183.600 M240.700 183.895 C 241.855 183.976,243.745 183.976,244.900 183.895 C 246.055 183.814,245.110 183.748,242.800 183.748 C 240.490 183.748,239.545 183.814,240.700 183.895 M35.714 187.000 C 35.717 188.100,35.795 188.503,35.887 187.895 C 35.979 187.286,35.977 186.386,35.882 185.895 C 35.787 185.403,35.711 185.900,35.714 187.000 M364.114 187.000 C 364.117 188.100,364.195 188.503,364.287 187.895 C 364.379 187.286,364.377 186.386,364.282 185.895 C 364.187 185.403,364.111 185.900,364.114 187.000 M0.131 189.800 C 0.133 191.340,0.205 191.921,0.292 191.091 C 0.379 190.261,0.377 189.001,0.289 188.291 C 0.200 187.581,0.129 188.260,0.131 189.800 M399.731 189.800 C 399.733 191.340,399.805 191.921,399.892 191.091 C 399.979 190.261,399.977 189.001,399.889 188.291 C 399.800 187.581,399.729 188.260,399.731 189.800 M35.372 200.000 C 35.372 205.170,35.429 207.285,35.499 204.700 C 35.568 202.115,35.568 197.885,35.499 195.300 C 35.429 192.715,35.372 194.830,35.372 200.000 M364.571 200.000 C 364.571 204.950,364.628 206.975,364.699 204.500 C 364.769 202.025,364.769 197.975,364.699 195.500 C 364.628 193.025,364.571 195.050,364.571 200.000 M276.653 193.582 L 274.305 195.142 277.253 196.625 C 286.673 201.366,293.285 208.649,296.657 218.000 C 297.172 219.430,297.489 220.006,297.361 219.280 C 296.500 214.410,291.260 206.065,286.682 202.274 C 285.757 201.508,284.388 200.328,283.640 199.652 C 282.893 198.975,280.754 197.632,278.888 196.666 L 275.496 194.910 277.348 193.636 C 278.367 192.935,279.200 192.280,279.200 192.181 C 279.200 191.897,279.135 191.933,276.653 193.582 M196.752 205.100 C 192.415 209.652,188.022 217.017,188.005 219.767 C 188.000 220.591,188.402 220.421,188.549 219.537 C 188.598 219.241,188.861 218.595,189.133 218.100 C 189.405 217.605,189.546 217.200,189.445 217.200 C 189.281 217.200,191.287 213.419,192.824 210.830 C 193.726 209.310,194.787 208.039,197.768 204.908 C 199.290 203.308,200.349 202.000,200.121 202.000 C 199.893 202.000,198.377 203.395,196.752 205.100 M0.131 210.200 C 0.133 211.740,0.205 212.321,0.292 211.491 C 0.379 210.661,0.377 209.401,0.289 208.691 C 0.200 207.981,0.129 208.660,0.131 210.200 M399.731 210.200 C 399.733 211.740,399.805 212.321,399.892 211.491 C 399.979 210.661,399.977 209.401,399.889 208.691 C 399.800 207.981,399.729 208.660,399.731 210.200 M238.400 209.200 C 237.589 209.460,237.763 209.528,239.324 209.560 C 240.513 209.585,241.153 209.447,241.000 209.200 C 240.716 208.741,239.835 208.741,238.400 209.200 M244.400 209.200 C 244.400 209.420,245.255 209.579,246.300 209.553 C 247.996 209.510,248.071 209.473,247.000 209.200 C 245.231 208.750,244.400 208.750,244.400 209.200 M250.800 209.992 C 250.800 210.217,251.025 210.402,251.300 210.405 C 251.575 210.408,252.250 210.523,252.800 210.660 C 253.470 210.827,253.668 210.776,253.400 210.506 C 252.806 209.908,250.800 209.511,250.800 209.992 M230.330 210.977 C 225.375 213.036,221.808 216.462,220.624 220.300 C 220.109 221.970,221.085 221.216,221.774 219.411 C 223.093 215.960,229.372 210.800,232.254 210.800 C 232.554 210.800,232.800 210.620,232.800 210.400 C 232.800 209.908,233.033 209.854,230.330 210.977 M255.592 211.651 C 256.577 212.088,257.960 212.885,258.665 213.423 C 259.370 213.960,260.124 214.400,260.340 214.400 C 260.557 214.400,261.392 215.165,262.196 216.100 C 263.000 217.035,263.480 217.440,263.261 217.000 C 262.222 214.910,256.247 210.743,254.411 210.828 C 254.075 210.844,254.606 211.214,255.592 211.651 M35.714 213.000 C 35.717 214.100,35.795 214.503,35.887 213.895 C 35.979 213.286,35.977 212.386,35.882 211.895 C 35.787 211.403,35.711 211.900,35.714 213.000 M364.109 212.800 C 364.109 213.790,364.187 214.195,364.282 213.700 C 364.378 213.205,364.378 212.395,364.282 211.900 C 364.187 211.405,364.109 211.810,364.109 212.800 M0.501 216.600 C 0.505 217.480,0.587 217.793,0.683 217.295 C 0.779 216.798,0.775 216.078,0.675 215.695 C 0.575 215.313,0.496 215.720,0.501 216.600 M399.301 216.600 C 399.305 217.480,399.387 217.793,399.483 217.295 C 399.579 216.798,399.575 216.078,399.475 215.695 C 399.375 215.313,399.296 215.720,399.301 216.600 M36.101 217.400 C 36.105 218.280,36.187 218.593,36.283 218.095 C 36.379 217.598,36.375 216.878,36.275 216.495 C 36.175 216.113,36.096 216.520,36.101 217.400 M363.701 217.400 C 363.705 218.280,363.787 218.593,363.883 218.095 C 363.979 217.598,363.975 216.878,363.875 216.495 C 363.775 216.113,363.696 216.520,363.701 217.400 M0.901 221.000 C 0.905 221.880,0.987 222.193,1.083 221.695 C 1.179 221.198,1.175 220.478,1.075 220.095 C 0.975 219.713,0.896 220.120,0.901 221.000 M36.493 220.800 C 36.493 221.570,36.575 221.885,36.676 221.500 C 36.776 221.115,36.776 220.485,36.676 220.100 C 36.575 219.715,36.493 220.030,36.493 220.800 M264.418 219.800 C 264.415 220.020,264.682 221.010,265.011 222.000 L 265.610 223.800 265.369 222.200 C 265.143 220.707,264.432 218.911,264.418 219.800 M363.293 220.800 C 363.293 221.570,363.375 221.885,363.476 221.500 C 363.576 221.115,363.576 220.485,363.476 220.100 C 363.375 219.715,363.293 220.030,363.293 220.800 M398.901 221.000 C 398.905 221.880,398.987 222.193,399.083 221.695 C 399.179 221.198,399.175 220.478,399.075 220.095 C 398.975 219.713,398.896 220.120,398.901 221.000 M220.000 222.200 C 220.000 222.530,220.180 222.800,220.400 222.800 C 220.620 222.800,220.800 222.530,220.800 222.200 C 220.800 221.870,220.620 221.600,220.400 221.600 C 220.180 221.600,220.000 221.870,220.000 222.200 M219.600 224.600 C 219.600 225.370,219.780 226.000,220.000 226.000 C 220.220 226.000,220.400 225.370,220.400 224.600 C 220.400 223.830,220.220 223.200,220.000 223.200 C 219.780 223.200,219.600 223.830,219.600 224.600 M1.293 224.800 C 1.293 225.570,1.375 225.885,1.476 225.500 C 1.576 225.115,1.576 224.485,1.476 224.100 C 1.375 223.715,1.293 224.030,1.293 224.800 M398.493 224.800 C 398.493 225.570,398.575 225.885,398.676 225.500 C 398.776 225.115,398.776 224.485,398.676 224.100 C 398.575 223.715,398.493 224.030,398.493 224.800 M265.731 226.600 C 265.733 228.140,265.805 228.721,265.892 227.891 C 265.979 227.061,265.977 225.801,265.889 225.091 C 265.800 224.381,265.729 225.060,265.731 226.600 M298.548 229.600 C 298.548 231.910,298.614 232.855,298.695 231.700 C 298.776 230.545,298.776 228.655,298.695 227.500 C 298.614 226.345,298.548 227.290,298.548 229.600 M219.600 228.600 C 219.600 229.370,219.780 230.000,220.000 230.000 C 220.220 230.000,220.400 229.370,220.400 228.600 C 220.400 227.830,220.220 227.200,220.000 227.200 C 219.780 227.200,219.600 227.830,219.600 228.600 M186.509 230.400 C 186.509 231.390,186.587 231.795,186.682 231.300 C 186.778 230.805,186.778 229.995,186.682 229.500 C 186.587 229.005,186.509 229.410,186.509 230.400 M265.200 230.585 C 265.200 234.705,260.017 240.301,254.022 242.654 C 252.771 243.145,252.743 243.184,253.787 242.977 C 257.645 242.211,261.982 238.930,263.895 235.328 C 265.067 233.124,265.975 230.000,265.445 230.000 C 265.310 230.000,265.200 230.263,265.200 230.585 M220.000 231.185 C 220.000 235.901,228.795 243.738,233.909 243.578 C 234.289 243.567,233.610 243.238,232.400 242.847 C 226.871 241.063,220.800 235.039,220.800 231.336 C 220.800 231.041,220.620 230.800,220.400 230.800 C 220.180 230.800,220.000 230.973,220.000 231.185 M361.022 233.822 C 360.872 234.625,360.828 235.362,360.926 235.460 C 361.024 235.557,361.227 234.981,361.378 234.178 C 361.528 233.375,361.572 232.638,361.474 232.540 C 361.376 232.443,361.173 233.019,361.022 233.822 M38.839 234.669 C 38.763 235.587,39.743 239.200,40.069 239.200 C 40.482 239.200,40.504 238.236,40.100 237.839 C 39.935 237.677,39.593 236.792,39.339 235.872 C 39.086 234.952,38.861 234.411,38.839 234.669 M360.400 236.653 C 360.400 237.086,360.239 237.611,360.042 237.820 C 359.512 238.383,359.076 240.800,359.505 240.800 C 359.936 240.800,360.983 236.450,360.636 236.102 C 360.506 235.973,360.400 236.221,360.400 236.653 M187.600 239.271 C 187.600 244.341,195.087 254.990,201.300 258.756 C 202.125 259.256,202.800 259.841,202.800 260.056 C 202.800 260.271,202.961 260.348,203.158 260.226 C 203.355 260.104,203.613 260.258,203.732 260.567 C 204.071 261.451,210.769 264.621,215.594 266.181 C 220.173 267.661,221.427 267.892,220.983 267.173 C 220.838 266.938,220.473 266.840,220.172 266.955 C 219.872 267.071,219.512 266.981,219.372 266.755 C 219.233 266.530,218.867 266.442,218.560 266.560 C 218.252 266.678,218.000 266.581,218.000 266.345 C 218.000 266.108,217.748 266.011,217.439 266.130 C 217.131 266.248,216.756 266.222,216.606 266.072 C 216.456 265.923,216.168 265.778,215.967 265.750 C 215.765 265.723,215.510 265.655,215.400 265.600 C 215.290 265.545,215.065 265.461,214.900 265.414 C 208.168 263.481,198.675 257.079,194.228 251.474 C 192.726 249.581,189.257 243.528,188.970 242.300 C 188.932 242.135,188.855 241.910,188.800 241.800 C 188.745 241.690,188.655 241.420,188.600 241.200 C 188.545 240.980,188.464 240.755,188.419 240.700 C 188.375 240.645,188.276 240.269,188.199 239.863 C 188.018 238.905,187.600 238.492,187.600 239.271 M296.457 241.827 C 294.272 248.653,287.266 256.965,280.510 260.746 C 280.123 260.963,279.925 261.258,280.069 261.402 C 280.371 261.704,281.663 261.080,282.531 260.212 C 282.857 259.885,284.454 258.562,286.079 257.271 C 291.482 252.977,298.519 241.898,297.533 239.238 C 297.460 239.042,296.976 240.206,296.457 241.827 M4.080 241.800 C 4.080 242.240,4.224 243.050,4.400 243.600 C 4.654 244.392,4.720 244.433,4.720 243.800 C 4.720 243.360,4.576 242.550,4.400 242.000 C 4.146 241.208,4.080 241.167,4.080 241.800 M40.400 241.800 C 40.400 242.130,40.580 242.400,40.800 242.400 C 41.020 242.400,41.200 242.130,41.200 241.800 C 41.200 241.470,41.020 241.200,40.800 241.200 C 40.580 241.200,40.400 241.470,40.400 241.800 M358.800 241.800 C 358.800 242.130,358.980 242.400,359.200 242.400 C 359.420 242.400,359.600 242.130,359.600 241.800 C 359.600 241.470,359.420 241.200,359.200 241.200 C 358.980 241.200,358.800 241.470,358.800 241.800 M395.422 242.622 C 395.272 243.425,395.228 244.162,395.326 244.260 C 395.424 244.357,395.627 243.781,395.778 242.978 C 395.928 242.175,395.972 241.438,395.874 241.340 C 395.776 241.243,395.573 241.819,395.422 242.622 M40.800 243.400 C 40.800 243.730,40.980 244.000,41.200 244.000 C 41.420 244.000,41.600 243.730,41.600 243.400 C 41.600 243.070,41.420 242.800,41.200 242.800 C 40.980 242.800,40.800 243.070,40.800 243.400 M358.400 243.400 C 358.400 243.730,358.580 244.000,358.800 244.000 C 359.020 244.000,359.200 243.730,359.200 243.400 C 359.200 243.070,359.020 242.800,358.800 242.800 C 358.580 242.800,358.400 243.070,358.400 243.400 M237.900 244.282 C 238.395 244.378,239.205 244.378,239.700 244.282 C 240.195 244.187,239.790 244.109,238.800 244.109 C 237.810 244.109,237.405 244.187,237.900 244.282 M245.900 244.282 C 246.395 244.378,247.205 244.378,247.700 244.282 C 248.195 244.187,247.790 244.109,246.800 244.109 C 245.810 244.109,245.405 244.187,245.900 244.282 M41.389 245.499 C 41.700 246.739,41.901 247.032,42.219 246.714 C 42.562 246.371,41.961 244.400,41.513 244.400 C 41.277 244.400,41.226 244.849,41.389 245.499 M358.145 245.000 C 358.271 245.330,358.201 245.600,357.987 245.600 C 357.774 245.600,357.600 245.870,357.600 246.200 C 357.600 247.124,358.277 246.910,358.548 245.900 C 358.889 244.628,358.860 244.400,358.357 244.400 C 358.114 244.400,358.018 244.670,358.145 245.000 M4.843 245.200 C 4.828 245.530,5.066 246.700,5.372 247.800 C 5.678 248.900,5.941 249.530,5.957 249.200 C 5.972 248.870,5.734 247.700,5.428 246.600 C 5.122 245.500,4.859 244.870,4.843 245.200 M394.429 247.029 C 394.154 248.257,394.006 249.339,394.100 249.433 C 394.194 249.528,394.497 248.600,394.771 247.371 C 395.046 246.143,395.194 245.061,395.100 244.967 C 395.006 244.872,394.703 245.800,394.429 247.029 M42.400 248.725 C 42.400 249.208,44.694 255.906,45.061 256.494 C 45.235 256.772,45.432 257.352,45.499 257.783 C 45.565 258.213,45.751 258.663,45.910 258.783 C 46.070 258.902,46.262 259.360,46.338 259.800 C 46.501 260.743,46.713 261.020,47.030 260.703 C 47.157 260.576,46.636 258.791,45.872 256.736 C 45.108 254.681,44.162 251.965,43.769 250.700 C 43.159 248.738,42.400 247.643,42.400 248.725 M356.231 250.700 C 355.838 251.965,354.892 254.681,354.128 256.736 C 353.364 258.791,352.843 260.576,352.970 260.703 C 353.287 261.020,353.499 260.743,353.662 259.800 C 353.738 259.360,353.930 258.902,354.090 258.783 C 354.249 258.663,354.435 258.213,354.501 257.783 C 354.568 257.352,354.765 256.772,354.939 256.494 C 355.306 255.906,357.600 249.208,357.600 248.725 C 357.600 247.643,356.841 248.738,356.231 250.700 M6.056 250.400 C 6.056 250.730,6.211 251.360,6.400 251.800 C 6.617 252.304,6.744 252.378,6.744 252.000 C 6.744 251.670,6.589 251.040,6.400 250.600 C 6.183 250.096,6.056 250.022,6.056 250.400 M393.429 251.029 C 393.281 251.615,393.238 252.172,393.332 252.266 C 393.427 252.360,393.624 251.958,393.771 251.371 C 393.919 250.785,393.962 250.228,393.868 250.134 C 393.773 250.040,393.576 250.442,393.429 251.029 M7.430 255.399 C 7.675 256.651,7.888 257.048,8.163 256.767 C 8.253 256.675,8.072 256.060,7.761 255.400 L 7.195 254.200 7.430 255.399 M392.273 254.953 C 392.123 255.345,392.011 255.966,392.025 256.333 C 392.042 256.775,392.181 256.674,392.437 256.034 C 392.649 255.503,392.761 254.882,392.685 254.654 C 392.609 254.427,392.424 254.561,392.273 254.953 M8.800 260.255 C 8.800 260.716,11.062 267.405,12.602 271.500 C 13.202 273.095,13.871 274.400,14.089 274.400 C 14.309 274.400,14.358 274.087,14.201 273.700 C 14.044 273.315,13.212 271.110,12.352 268.800 C 11.492 266.490,10.671 264.330,10.529 264.000 C 10.386 263.670,10.231 263.265,10.185 263.100 C 10.138 262.935,10.055 262.710,10.000 262.600 C 9.945 262.490,9.855 262.220,9.800 262.000 C 9.745 261.780,9.655 261.510,9.600 261.400 C 9.545 261.290,9.478 261.035,9.450 260.833 C 9.378 260.306,8.800 259.792,8.800 260.255 M390.750 260.133 C 390.656 260.637,390.500 261.200,390.400 261.400 C 390.345 261.510,390.255 261.780,390.200 262.000 C 390.145 262.220,390.055 262.490,390.000 262.600 C 389.945 262.710,389.862 262.935,389.816 263.100 C 389.771 263.265,389.510 263.940,389.237 264.600 C 388.631 266.068,388.222 268.000,388.517 268.000 C 388.867 268.000,391.307 260.373,391.041 260.108 C 390.909 259.975,390.778 259.987,390.750 260.133 M47.084 262.000 C 47.199 262.440,47.452 262.800,47.647 262.800 C 48.065 262.800,48.079 262.672,47.757 261.833 C 47.405 260.914,46.837 261.055,47.084 262.000 M277.000 262.467 C 274.255 263.872,274.187 263.920,274.493 264.226 C 274.810 264.544,279.600 262.075,279.600 261.594 C 279.600 261.098,279.814 261.027,277.000 262.467 M352.243 261.833 C 351.921 262.672,351.935 262.800,352.353 262.800 C 352.548 262.800,352.801 262.440,352.916 262.000 C 353.163 261.055,352.595 260.914,352.243 261.833 M47.975 264.100 C 49.273 267.389,55.991 280.542,56.244 280.289 C 56.352 280.181,55.278 277.867,53.856 275.146 C 52.435 272.426,50.596 268.625,49.769 266.700 C 48.489 263.720,46.938 261.472,47.975 264.100 M350.231 266.700 C 349.404 268.625,347.565 272.426,346.144 275.146 C 344.722 277.867,343.645 280.179,343.750 280.283 C 343.965 280.499,344.124 280.204,348.441 271.587 C 351.882 264.719,352.537 263.200,352.057 263.200 C 351.879 263.200,351.058 264.775,350.231 266.700 M272.812 264.384 C 272.488 264.589,272.327 264.861,272.454 264.988 C 272.769 265.303,274.000 264.801,274.000 264.357 C 274.000 263.901,273.560 263.911,272.812 264.384 M269.500 265.508 C 267.849 266.058,266.946 266.800,267.929 266.800 C 268.739 266.800,272.000 265.488,272.000 265.162 C 272.000 264.709,271.835 264.732,269.500 265.508 M265.800 266.685 C 264.761 266.935,264.043 267.602,264.820 267.595 C 265.867 267.585,267.200 267.114,267.200 266.753 C 267.200 266.381,267.086 266.376,265.800 266.685 M223.200 268.000 C 223.200 268.220,223.605 268.397,224.100 268.394 C 224.828 268.389,224.885 268.314,224.400 268.000 C 223.624 267.499,223.200 267.499,223.200 268.000 M261.000 268.000 C 260.864 268.220,261.134 268.400,261.600 268.400 C 262.066 268.400,262.336 268.220,262.200 268.000 C 262.064 267.780,261.794 267.600,261.600 267.600 C 261.406 267.600,261.136 267.780,261.000 268.000 M225.200 268.400 C 225.200 268.620,225.695 268.797,226.300 268.794 C 227.157 268.789,227.268 268.702,226.800 268.400 C 226.017 267.894,225.200 267.894,225.200 268.400 M258.800 268.400 C 258.334 268.701,258.451 268.789,259.324 268.794 C 259.972 268.797,260.343 268.631,260.200 268.400 C 259.893 267.903,259.569 267.903,258.800 268.400 M227.600 268.800 C 227.600 269.020,228.185 269.187,228.900 269.172 C 229.989 269.148,230.070 269.088,229.400 268.800 C 228.295 268.325,227.600 268.325,227.600 268.800 M256.000 268.800 C 255.532 269.102,255.643 269.189,256.500 269.194 C 257.105 269.197,257.600 269.020,257.600 268.800 C 257.600 268.294,256.783 268.294,256.000 268.800 M386.717 271.400 C 386.123 273.050,385.788 274.400,385.972 274.400 C 386.242 274.400,388.400 269.225,388.400 268.577 C 388.400 267.611,387.592 268.966,386.717 271.400 M231.001 269.199 C 230.852 269.440,231.348 269.600,232.243 269.600 C 233.905 269.600,233.929 269.439,232.325 269.055 C 231.733 268.913,231.137 268.978,231.001 269.199 M252.800 269.200 C 251.853 269.503,251.868 269.522,253.100 269.560 C 253.815 269.582,254.400 269.420,254.400 269.200 C 254.400 268.748,254.212 268.748,252.800 269.200 M235.338 269.700 C 235.236 269.865,238.523 270.000,242.643 270.000 C 246.763 270.000,250.029 269.895,249.901 269.767 C 249.551 269.418,235.552 269.353,235.338 269.700 M14.006 275.100 C 14.017 275.647,14.753 276.581,14.988 276.346 C 15.303 276.031,14.801 274.800,14.357 274.800 C 14.161 274.800,14.003 274.935,14.006 275.100 M385.033 275.457 C 384.699 276.330,385.143 276.736,385.616 275.988 C 386.089 275.240,386.099 274.800,385.643 274.800 C 385.446 274.800,385.172 275.096,385.033 275.457 M14.800 276.981 C 14.800 277.081,15.009 277.621,15.264 278.181 C 15.912 279.603,16.449 279.459,15.940 278.000 C 15.597 277.015,14.800 276.303,14.800 276.981 M384.060 278.000 C 383.551 279.459,384.088 279.603,384.736 278.181 C 385.295 276.955,385.306 276.800,384.839 276.800 C 384.641 276.800,384.290 277.340,384.060 278.000 M16.219 280.461 C 16.698 281.970,19.634 288.174,19.973 288.391 C 20.152 288.506,20.963 289.923,21.775 291.541 C 22.587 293.159,23.325 294.409,23.414 294.319 C 23.504 294.229,22.883 292.816,22.034 291.178 C 21.185 289.540,19.708 286.490,18.752 284.400 C 17.796 282.310,16.874 280.540,16.704 280.466 C 16.534 280.392,16.497 280.167,16.621 279.966 C 16.745 279.765,16.644 279.600,16.397 279.600 C 16.118 279.600,16.050 279.927,16.219 280.461 M381.834 283.104 C 380.973 285.027,379.406 288.303,378.351 290.384 C 377.297 292.465,376.505 294.239,376.592 294.325 C 376.678 294.411,377.413 293.159,378.225 291.541 C 379.037 289.923,379.845 288.508,380.020 288.396 C 380.381 288.163,384.000 280.485,384.000 279.950 C 384.000 278.874,383.220 280.010,381.834 283.104 M57.032 282.063 C 58.957 285.785,65.934 296.400,66.455 296.400 C 66.645 296.400,66.800 296.601,66.800 296.846 C 66.800 299.542,92.150 326.113,97.700 329.234 C 99.118 330.032,98.319 329.205,95.100 326.543 C 92.341 324.262,83.416 315.865,81.854 314.081 C 81.604 313.796,80.221 312.356,78.781 310.881 C 75.696 307.723,71.252 302.389,69.000 299.140 C 68.120 297.871,65.780 294.440,63.800 291.516 C 61.820 288.592,60.066 286.140,59.901 286.067 C 59.737 285.994,58.956 284.779,58.167 283.367 C 56.706 280.755,55.843 279.762,57.032 282.063 M341.845 283.346 C 341.049 284.770,340.248 285.994,340.066 286.067 C 339.883 286.140,339.053 287.280,338.222 288.600 C 333.366 296.308,325.601 306.456,321.321 310.687 C 319.714 312.275,318.400 313.643,318.400 313.726 C 318.400 313.810,317.383 314.896,316.139 316.139 C 314.896 317.383,313.810 318.400,313.726 318.400 C 313.643 318.400,312.275 319.714,310.687 321.321 C 306.456 325.601,296.308 333.366,288.600 338.222 C 287.280 339.053,286.140 339.883,286.067 340.066 C 285.994 340.248,284.770 341.049,283.346 341.845 C 281.923 342.641,280.839 343.373,280.938 343.471 C 281.355 343.888,296.400 334.235,296.400 333.550 C 296.400 333.358,296.632 333.200,296.915 333.200 C 297.911 333.200,308.759 324.109,315.615 317.527 C 319.951 313.365,330.800 301.043,330.800 300.281 C 330.800 300.173,331.340 299.507,332.000 298.800 C 332.660 298.093,333.200 297.264,333.200 296.958 C 333.200 296.651,333.347 296.400,333.527 296.400 C 334.213 296.400,343.889 281.356,343.471 280.938 C 343.373 280.839,342.641 281.923,341.845 283.346 M24.620 296.840 C 25.189 297.962,25.748 298.786,25.862 298.671 C 26.070 298.463,24.076 294.800,23.755 294.800 C 23.662 294.800,24.052 295.718,24.620 296.840 M375.028 296.661 C 374.456 297.684,374.069 298.602,374.167 298.701 C 374.266 298.799,374.811 297.962,375.380 296.840 C 376.673 294.288,376.425 294.162,375.028 296.661 M26.264 299.843 C 27.191 302.331,37.806 318.417,38.713 318.710 C 39.129 318.844,32.794 309.088,32.018 308.400 C 31.894 308.290,31.438 307.525,31.005 306.700 C 30.572 305.875,30.079 305.200,29.909 305.200 C 29.739 305.200,29.600 305.001,29.600 304.758 C 29.600 304.515,29.060 303.516,28.400 302.538 C 27.740 301.560,27.200 300.611,27.200 300.429 C 27.200 300.247,26.926 299.870,26.591 299.592 C 26.074 299.163,26.024 299.201,26.264 299.843 M372.157 301.690 C 371.301 303.059,370.527 304.364,370.438 304.590 C 370.349 304.815,369.854 305.557,369.338 306.238 C 368.822 306.919,368.400 307.684,368.400 307.938 C 368.400 308.192,368.250 308.400,368.068 308.400 C 367.885 308.400,367.480 308.895,367.168 309.500 C 366.856 310.105,366.511 310.690,366.401 310.800 C 366.290 310.910,365.403 312.170,364.429 313.600 C 354.186 328.639,339.887 344.027,325.295 355.716 C 319.828 360.095,309.421 367.600,308.816 367.600 C 308.587 367.600,308.400 367.780,308.400 368.000 C 308.400 368.220,308.192 368.400,307.938 368.400 C 307.684 368.400,306.886 368.850,306.164 369.400 C 305.443 369.950,304.757 370.400,304.640 370.400 C 304.421 370.400,299.618 373.449,299.237 373.830 C 297.840 375.227,305.043 370.920,312.400 365.959 C 335.562 350.340,357.525 327.231,371.665 303.600 C 374.454 298.939,374.858 297.370,372.157 301.690 M41.852 323.100 C 57.536 342.913,76.666 359.940,96.400 371.650 C 99.268 373.352,102.786 375.045,101.060 373.894 C 98.040 371.877,95.569 370.400,95.217 370.400 C 94.988 370.400,94.800 370.249,94.800 370.064 C 94.800 369.880,94.082 369.385,93.205 368.964 C 92.327 368.544,91.607 368.065,91.605 367.900 C 91.602 367.735,91.345 367.600,91.033 367.600 C 90.722 367.600,90.407 367.451,90.333 367.270 C 90.260 367.088,88.760 365.976,87.000 364.799 C 71.178 354.216,54.024 337.997,41.416 321.700 C 40.352 320.325,39.321 319.200,39.123 319.200 C 38.926 319.200,40.154 320.955,41.852 323.100 M98.800 330.028 C 98.800 330.274,99.148 330.566,99.572 330.677 C 99.997 330.788,100.441 331.131,100.560 331.439 C 100.678 331.748,101.031 332.000,101.345 332.000 C 101.658 332.000,102.018 332.270,102.145 332.600 C 102.271 332.930,102.651 333.200,102.987 333.200 C 103.324 333.200,103.600 333.348,103.600 333.529 C 103.600 333.867,106.825 336.132,111.800 339.289 C 114.408 340.944,117.764 342.790,115.835 341.508 C 115.414 341.229,114.772 340.718,114.407 340.372 C 114.043 340.027,112.147 338.704,110.195 337.431 C 108.243 336.158,105.375 334.187,103.823 333.051 C 99.831 330.128,98.800 329.508,98.800 330.028 M116.800 342.179 C 116.800 342.289,117.340 342.659,118.000 343.000 C 118.660 343.341,119.200 343.531,119.200 343.421 C 119.200 343.311,118.660 342.941,118.000 342.600 C 117.340 342.259,116.800 342.069,116.800 342.179 M119.820 343.974 C 120.273 344.419,129.883 349.203,130.306 349.194 C 130.665 349.186,120.080 343.600,119.706 343.600 C 119.560 343.600,119.611 343.768,119.820 343.974 M276.200 345.608 C 274.220 346.696,270.485 348.524,267.900 349.671 C 265.315 350.818,263.200 351.897,263.200 352.069 C 263.200 352.620,279.052 345.057,280.180 343.967 C 281.029 343.147,279.634 343.722,276.200 345.608 M130.800 349.506 C 130.800 349.711,131.475 350.155,132.300 350.493 C 133.125 350.830,134.475 351.400,135.300 351.759 C 136.125 352.117,136.800 352.255,136.800 352.065 C 136.800 351.790,134.634 350.722,131.122 349.267 C 130.945 349.193,130.800 349.301,130.800 349.506 M137.200 352.353 C 137.200 352.548,137.560 352.801,138.000 352.916 C 138.945 353.163,139.086 352.595,138.167 352.243 C 137.328 351.921,137.200 351.935,137.200 352.353 M261.612 352.384 C 261.288 352.589,261.127 352.861,261.254 352.988 C 261.569 353.303,262.800 352.801,262.800 352.357 C 262.800 351.901,262.360 351.911,261.612 352.384 M139.200 353.153 C 139.200 353.539,139.731 353.690,140.655 353.566 C 140.796 353.547,141.028 353.723,141.173 353.956 C 141.317 354.189,141.787 354.443,142.217 354.519 C 142.648 354.596,143.630 354.932,144.400 355.266 C 146.939 356.365,151.247 357.687,151.492 357.441 C 151.844 357.090,151.879 357.105,146.000 355.044 C 138.921 352.562,139.200 352.640,139.200 353.153 M258.600 353.414 C 257.940 353.715,255.150 354.715,252.400 355.636 C 247.048 357.427,246.940 357.474,247.308 357.841 C 247.554 358.087,254.742 355.843,256.200 355.066 C 256.640 354.831,257.352 354.581,257.783 354.509 C 258.213 354.438,258.663 354.249,258.783 354.090 C 258.902 353.930,259.225 353.782,259.500 353.760 C 260.595 353.672,260.800 353.584,260.800 353.200 C 260.800 352.671,260.069 352.742,258.600 353.414 M153.200 357.913 C 153.200 358.361,155.171 358.962,155.514 358.619 C 155.832 358.301,155.539 358.100,154.299 357.789 C 153.649 357.626,153.200 357.677,153.200 357.913 M245.600 357.987 C 245.600 358.201,245.330 358.271,245.000 358.145 C 244.668 358.017,244.400 358.133,244.400 358.404 C 244.400 358.716,244.726 358.806,245.300 358.652 C 245.795 358.519,246.335 358.408,246.500 358.405 C 247.086 358.395,246.790 357.600,246.200 357.600 C 245.870 357.600,245.600 357.774,245.600 357.987 M156.000 358.800 C 156.000 359.020,156.270 359.200,156.600 359.200 C 156.930 359.200,157.200 359.020,157.200 358.800 C 157.200 358.580,156.930 358.400,156.600 358.400 C 156.270 358.400,156.000 358.580,156.000 358.800 M242.800 358.800 C 242.800 359.020,243.070 359.200,243.400 359.200 C 243.730 359.200,244.000 359.020,244.000 358.800 C 244.000 358.580,243.730 358.400,243.400 358.400 C 243.070 358.400,242.800 358.580,242.800 358.800 M157.600 359.200 C 157.600 359.420,157.870 359.600,158.200 359.600 C 158.530 359.600,158.800 359.420,158.800 359.200 C 158.800 358.980,158.530 358.800,158.200 358.800 C 157.870 358.800,157.600 358.980,157.600 359.200 M159.200 359.505 C 159.200 359.936,163.550 360.983,163.898 360.636 C 164.027 360.506,163.779 360.400,163.347 360.400 C 162.914 360.400,162.389 360.239,162.180 360.042 C 161.617 359.512,159.200 359.076,159.200 359.505 M239.000 359.489 C 238.560 359.598,238.020 359.831,237.800 360.007 C 237.580 360.184,236.717 360.456,235.881 360.612 C 235.046 360.768,234.449 360.983,234.555 361.088 C 234.851 361.385,240.800 359.897,240.800 359.527 C 240.800 359.180,240.302 359.170,239.000 359.489 M165.200 361.200 C 165.750 361.376,166.560 361.520,167.000 361.520 C 167.633 361.520,167.592 361.454,166.800 361.200 C 166.250 361.024,165.440 360.880,165.000 360.880 C 164.367 360.880,164.408 360.946,165.200 361.200 M178.500 363.476 C 178.885 363.576,179.515 363.576,179.900 363.476 C 180.285 363.375,179.970 363.293,179.200 363.293 C 178.430 363.293,178.115 363.375,178.500 363.476 M220.100 363.476 C 220.485 363.576,221.115 363.576,221.500 363.476 C 221.885 363.375,221.570 363.293,220.800 363.293 C 220.030 363.293,219.715 363.375,220.100 363.476 M181.905 363.883 C 182.402 363.979,183.122 363.975,183.505 363.875 C 183.887 363.775,183.480 363.696,182.600 363.701 C 181.720 363.705,181.407 363.787,181.905 363.883 M216.705 363.883 C 217.202 363.979,217.922 363.975,218.305 363.875 C 218.687 363.775,218.280 363.696,217.400 363.701 C 216.520 363.705,216.207 363.787,216.705 363.883 M186.300 364.282 C 186.795 364.378,187.605 364.378,188.100 364.282 C 188.595 364.187,188.190 364.109,187.200 364.109 C 186.210 364.109,185.805 364.187,186.300 364.282 M212.105 364.287 C 212.714 364.379,213.614 364.377,214.105 364.282 C 214.597 364.187,214.100 364.111,213.000 364.114 C 211.900 364.117,211.497 364.195,212.105 364.287 M193.100 364.695 C 194.255 364.776,196.145 364.776,197.300 364.695 C 198.455 364.614,197.510 364.548,195.200 364.548 C 192.890 364.548,191.945 364.614,193.100 364.695 M202.700 364.695 C 203.855 364.776,205.745 364.776,206.900 364.695 C 208.055 364.614,207.110 364.548,204.800 364.548 C 202.490 364.548,201.545 364.614,202.700 364.695 M296.711 374.960 C 294.387 376.341,294.382 376.606,296.700 375.441 C 297.855 374.861,298.800 374.300,298.800 374.193 C 298.800 373.849,298.229 374.058,296.711 374.960 M102.220 374.755 C 102.429 374.950,104.580 376.154,107.000 377.431 C 109.420 378.707,111.490 379.878,111.600 380.034 C 111.841 380.374,118.766 383.600,119.256 383.600 C 120.397 383.600,119.095 382.758,115.527 381.190 C 113.286 380.206,109.375 378.275,106.835 376.900 C 102.274 374.431,101.477 374.060,102.220 374.755 M291.600 377.786 C 290.170 378.528,286.885 380.094,284.300 381.267 C 280.157 383.147,278.800 384.000,279.950 384.000 C 280.485 384.000,288.163 380.381,288.396 380.020 C 288.508 379.845,289.905 379.047,291.500 378.246 C 293.095 377.445,294.400 376.702,294.400 376.595 C 294.400 376.326,294.498 376.284,291.600 377.786 M120.800 383.995 C 120.800 384.271,121.741 384.800,122.233 384.800 C 122.779 384.800,122.266 384.058,121.600 383.884 C 121.160 383.769,120.800 383.819,120.800 383.995 M277.900 384.065 C 276.989 384.398,276.340 385.200,276.981 385.200 C 277.492 385.200,279.200 384.227,279.200 383.936 C 279.200 383.751,279.155 383.614,279.100 383.632 C 279.045 383.649,278.505 383.844,277.900 384.065 M122.800 384.763 C 122.800 385.054,127.561 387.200,128.204 387.200 C 128.723 387.200,128.315 386.469,127.700 386.296 C 127.315 386.187,126.055 385.719,124.900 385.255 C 123.745 384.791,122.800 384.570,122.800 384.763 M275.212 385.184 C 274.888 385.389,274.727 385.661,274.854 385.788 C 275.169 386.103,276.400 385.601,276.400 385.157 C 276.400 384.701,275.960 384.711,275.212 385.184 M273.500 385.903 C 273.115 385.989,272.800 386.225,272.800 386.429 C 272.800 386.898,273.234 386.893,273.988 386.416 C 274.707 385.961,274.450 385.692,273.500 385.903 M270.200 387.110 C 268.338 387.845,268.199 387.932,268.466 388.199 C 268.769 388.502,272.400 387.176,272.400 386.762 C 272.400 386.300,272.151 386.339,270.200 387.110 M128.800 387.198 C 128.800 387.457,130.887 388.400,131.460 388.400 C 132.173 388.400,131.302 387.643,130.200 387.305 C 129.430 387.068,128.800 387.020,128.800 387.198 M132.199 388.401 C 131.993 388.734,140.210 391.614,141.293 391.588 C 142.020 391.570,140.692 390.846,139.543 390.634 C 139.024 390.538,138.555 390.424,138.500 390.380 C 138.445 390.336,138.220 390.255,138.000 390.200 C 137.780 390.145,137.510 390.055,137.400 390.000 C 137.290 389.945,137.065 389.862,136.900 389.815 C 136.735 389.769,136.240 389.585,135.800 389.406 C 135.360 389.228,134.419 388.849,133.709 388.565 C 132.999 388.281,132.319 388.207,132.199 388.401 M265.500 388.979 C 264.895 389.294,264.400 389.451,264.400 389.327 C 264.400 389.203,264.102 389.349,263.739 389.651 C 263.375 389.953,263.015 390.155,262.939 390.100 C 262.862 390.045,262.710 390.023,262.600 390.050 C 262.490 390.078,262.220 390.145,262.000 390.200 C 261.780 390.255,261.510 390.345,261.400 390.400 C 261.290 390.455,261.035 390.523,260.833 390.550 C 260.304 390.622,259.793 391.200,260.258 391.200 C 260.774 391.200,267.665 388.868,267.929 388.604 C 268.377 388.156,266.531 388.441,265.500 388.979 M143.800 392.400 C 144.996 392.914,145.995 392.914,145.200 392.400 C 144.870 392.187,144.240 392.022,143.800 392.034 L 143.000 392.056 143.800 392.400 M254.800 392.400 C 254.005 392.914,255.004 392.914,256.200 392.400 L 257.000 392.056 256.200 392.034 C 255.760 392.022,255.130 392.187,254.800 392.400 M147.633 393.366 C 147.889 393.621,154.262 395.205,154.867 395.164 C 155.160 395.144,153.780 394.698,151.800 394.174 C 148.217 393.224,147.316 393.050,147.633 393.366 M246.400 394.600 C 245.410 394.887,244.870 395.136,245.200 395.153 C 245.530 395.170,246.700 394.934,247.800 394.628 C 248.900 394.322,249.440 394.073,249.000 394.075 C 248.560 394.077,247.390 394.313,246.400 394.600 M157.400 395.809 C 158.500 396.092,159.850 396.322,160.400 396.321 C 160.950 396.319,160.320 396.074,159.000 395.776 C 155.976 395.094,154.718 395.120,157.400 395.809 M242.000 395.600 C 241.208 395.854,241.167 395.920,241.800 395.920 C 242.240 395.920,243.050 395.776,243.600 395.600 C 244.392 395.346,244.433 395.280,243.800 395.280 C 243.360 395.280,242.550 395.424,242.000 395.600 M174.500 398.676 C 174.885 398.776,175.515 398.776,175.900 398.676 C 176.285 398.575,175.970 398.493,175.200 398.493 C 174.430 398.493,174.115 398.575,174.500 398.676 M224.100 398.676 C 224.485 398.776,225.115 398.776,225.500 398.676 C 225.885 398.575,225.570 398.493,224.800 398.493 C 224.030 398.493,223.715 398.575,224.100 398.676 M178.305 399.083 C 178.802 399.179,179.522 399.175,179.905 399.075 C 180.287 398.975,179.880 398.896,179.000 398.901 C 178.120 398.905,177.807 398.987,178.305 399.083 M220.305 399.083 C 220.802 399.179,221.522 399.175,221.905 399.075 C 222.287 398.975,221.880 398.896,221.000 398.901 C 220.120 398.905,219.807 398.987,220.305 399.083 M182.705 399.483 C 183.202 399.579,183.922 399.575,184.305 399.475 C 184.687 399.375,184.280 399.296,183.400 399.301 C 182.520 399.305,182.207 399.387,182.705 399.483 M215.905 399.483 C 216.402 399.579,217.122 399.575,217.505 399.475 C 217.887 399.375,217.480 399.296,216.600 399.301 C 215.720 399.305,215.407 399.387,215.905 399.483 M188.291 399.889 C 189.001 399.977,190.261 399.979,191.091 399.892 C 191.921 399.805,191.340 399.733,189.800 399.731 C 188.260 399.729,187.581 399.800,188.291 399.889 M208.691 399.889 C 209.401 399.977,210.661 399.979,211.491 399.892 C 212.321 399.805,211.740 399.733,210.200 399.731 C 208.660 399.729,207.981 399.800,208.691 399.889 " stroke="none" fill="#61646b" fill-rule="evenodd"></path></g></svg>